<?xml version="1.0" encoding="UTF-8"?>
<svg id="Layer_1" xmlns="http://www.w3.org/2000/svg" version="1.1" viewBox="0 0 4000 4000">
  <!-- Generator: Adobe Illustrator 29.0.0, SVG Export Plug-In . SVG Version: 2.1.0 Build 186)  -->
  <defs>
    <style>
      .st0 {
        fill: #fa878f;
      }

      .st1 {
        fill: #a9ce5b;
      }

      .st2 {
        fill: #107964;
      }

      .st3 {
        fill: #63f3eb;
      }

      .st4 {
        fill: #318b60;
      }

      .st5 {
        fill: #018980;
      }

      .st6 {
        fill: #8dcc66;
      }

      .st7 {
        fill: #37a376;
      }

      .st8 {
        fill: #8ccb66;
      }

      .st9 {
        fill: #35875a;
      }

      .st10 {
        fill: #006b61;
      }

      .st11 {
        fill: #013781;
      }

      .st12 {
        fill: #93cf65;
      }

      .st13 {
        fill: #0c8f7d;
      }

      .st14 {
        fill: #2ba5bf;
      }

      .st15 {
        fill: #0b715f;
      }

      .st16 {
        fill: #00685e;
      }

      .st17 {
        fill: #e17fb9;
      }

      .st18 {
        fill: #fc9f77;
      }

      .st19 {
        fill: #4be9da;
      }

      .st20 {
        fill: #65f4eb;
      }

      .st21 {
        fill: #63b86d;
      }

      .st22 {
        fill: #c4e069;
      }

      .st23 {
        fill: #50af71;
      }

      .st24 {
        fill: #1f8263;
      }

      .st25 {
        fill: #2b9e78;
      }

      .st26 {
        fill: #167259;
      }

      .st27 {
        fill: #a325bd;
      }

      .st28 {
        fill: #2a3290;
      }

      .st29 {
        fill: #1d977a;
      }

      .st30 {
        fill: #a8d369;
      }
    </style>
  </defs>
  <path class="st14" d="M2181.2,0c7,8.7,13.9,17.6,20.8,26.4,1.2,1.6,2.4,3.1,3.7,4.7,8.1,10.4,16,20.8,23.8,31.4,4.9,6.5,10,12.9,15,19.3,7.9,10,15.6,20,23.2,30.2,6.6,8.8,13.3,17.6,20,26.3,10.6,13.9,21.1,27.8,31.6,41.8,9.2,12.3,18.6,24.5,28.1,36.6,6.9,8.7,13.6,17.6,20.2,26.5,5.5,7.3,11,14.5,16.5,21.8,9.7,12.7,19.4,25.4,29.1,38.1,10.4,13.7,20.9,27.4,31.3,41,5.8,7.6,11.6,15.2,17.4,22.8q17.2,22.6,34.7,45c7.8,9.9,15.5,19.9,23.2,30,1,1.3,2,2.7,3.1,4q1.4,1.9,2.8,3.8c.8,1.1,1.7,2.2,2.5,3.3q2,3.1,4,8.9c1,1,2,2,3,3s1.4,1.4,2.8,2.8v3.9h3.9q7.8,10.6,7.8,15.6c1.9.6,3.9,1.3,5.9,2q3.6,4.3,7.2,9.6,1.8,2.6,3.7,5.3,2.8,4.6,2.8,8.5h3.9c.6,2.6,1.3,5.1,2,7.8h3.9c.2,1.2.4,2.5.6,3.8.4,1.3.9,2.7,1.3,4,1.9.6,3.9,1.3,5.9,2,3.6,4.4,6.9,8.9,10.1,13.5.9,1.3,1.8,2.5,2.7,3.8q6.6,9.4,6.6,13.9h3.9q2.9,3.3,6.4,8,1.8,2.5,3.7,5c1.3,1.7,2.5,3.5,3.8,5.3,1.3,1.7,2.6,3.5,3.9,5.3q9.5,13,9.5,17.4h3.9c.2,1.2.4,2.5.6,3.8.4,1.3.9,2.7,1.3,4,1.9.6,3.9,1.3,5.9,2q3,3.4,6.1,7.7,1.7,2.3,3.4,4.7c1.2,1.6,2.3,3.3,3.5,5q1.8,2.4,3.6,4.9,8.7,12.2,8.7,16.6h3.9q2.9,3.3,6.4,8,1.8,2.5,3.7,5c1.3,1.7,2.5,3.5,3.8,5.3,1.3,1.7,2.6,3.5,3.9,5.3q9.5,13,9.5,17.4h3.9c.2,1.2.4,2.5.6,3.8.4,1.3.9,2.7,1.3,4,1.9.6,3.9,1.3,5.9,2v5.9c1.9.6,3.9,1.3,5.9,2q3,3.4,6.1,7.7,1.7,2.3,3.4,4.7c1.2,1.6,2.3,3.3,3.5,5q1.8,2.4,3.6,4.9,8.7,12.2,8.7,16.6c1.9.6,3.9,1.3,5.9,2q3,3.4,6.1,7.7,1.7,2.3,3.4,4.7c1.2,1.6,2.3,3.3,3.5,5q1.8,2.4,3.6,4.9,8.7,12.2,8.7,16.6c1.9.6,3.9,1.3,5.9,2v5.9c1.9.6,3.9,1.3,5.9,2,3.2,3.7,6.1,7.4,9,11.3.8,1,1.6,2.1,2.4,3.2,4.1,5.6,6.4,10.1,8.1,16.7,1.9.6,3.9,1.3,5.9,2v5.9c1.9.6,3.9,1.3,5.9,2v5.9c1.9.6,3.9,1.3,5.9,2,3.2,3.7,6.1,7.4,9,11.3.8,1,1.6,2.1,2.4,3.2,4.1,5.6,6.4,10.1,8.1,16.7,1.9.6,3.9,1.3,5.9,2,4.5,5,5.9,6.7,5.9,13.7,1.9.6,3.9,1.3,5.9,2q3.1,3.4,6.1,7.6c1,1.4,2,2.7,3.1,4.1q2.5,3.9,4.5,9.8c1.6,1.6,3.2,3.1,4.9,4.8,4.6,4.7,6.1,6.5,6.8,12.8h3.9q3.4,4.1,7.1,9.5c1.2,1.8,2.5,3.5,3.7,5.3q2.8,4.6,2.8,8.5h3.9c7.5,7.3,14.3,15.3,17.6,25.4-.7,12-5,22-9.5,33-1.2,3.1-2.3,6.2-3.5,9.4-2.3,6.3-4.7,12.6-7.1,18.9-4.7,12.5-8.6,25.1-12.3,37.9-.7,2.3-1.4,4.6-2.1,7-5.9,20.2-11.4,40.6-16.8,61-.4,1.5-.8,3.1-1.2,4.6-5.8,21.9-11,43.9-15.7,66.1-.5,2.2-.9,4.4-1.4,6.7-1.2,5.8-2.4,11.6-3.6,17.3-.4,2-.8,4.1-1.2,6.2-3.1,15.6-5.5,31.2-7.6,46.9-.2,1.6-.4,3.2-.6,4.8l-.5,4.2q-.6,3.6-2.6,9.5c-.4,3.6-.7,7.1-1,10.7-.5,6.1-1,10.8-2.9,16.6-.4,2.8-.7,5.5-.9,8.3q-.2,2.5-.5,5.1c-.2,1.8-.3,3.6-.5,5.5-.2,1.9-.3,3.7-.5,5.6-.5,6-1.1,11.9-1.6,17.9-.5,5.9-1,11.9-1.6,17.8-.3,3.7-.7,7.4-1,11.1q-.2,2.5-.5,5.1c-.1,1.5-.3,3-.4,4.5-.4,3.8-.9,7.5-1.5,11.2-1,8.1-1.2,15.9-1.3,24,0,1.6,0,3.2,0,4.9,0,5.4,0,10.7,0,16.1,0,1.9,0,3.7,0,5.6,0,9.9,0,19.8,0,29.7,0,8,0,16.1,0,24.1q-2.8,109.9,18.1,216.7c1.7-1.7,3.4-3.4,5.1-5.2,6.3-6.4,12.7-12.7,19-19.1,2.7-2.7,5.5-5.5,8.2-8.2,3.9-4,7.9-7.9,11.9-11.9,1.2-1.2,2.4-2.4,3.6-3.7,8.4-8.4,17.2-16.3,26.3-24.1,2.1-1.9,4.2-3.7,6.3-5.6,17.4-15.2,35.5-29.5,54.1-43.2,1.5-1.1,3-2.2,4.5-3.3,81.5-59.7,173.2-100.6,274.3-109.8,1.9-.2,3.7-.4,5.6-.6,63.6-5.7,127.2-1.9,189.6,11,1.3.3,2.6.5,4,.8,19.8,4.2,38.9,9.7,58.1,16,2.1.7,4.3,1.4,6.5,2.1,92.7,30.1,187.6,81.8,251,157.8,1.5,1.7,3.1,3.4,4.6,5.2,59,66.2,91.3,147.9,91.4,236.4,0,1.6,0,3.2,0,4.9,0,23.6-.9,46.4-6.3,69.5-.3,1.3-.6,2.6-.9,3.9-2.6,11-5.7,21.8-9.3,32.5-.7,2.3-1.5,4.5-2.3,6.8q-1,3-2.1,6.1-1.4,5.1,0,9.3c3.7,5,7.9,8.9,12.5,13,50.7,49,71.4,134.3,85,200.6.3,1.6.7,3.2,1,4.8,1.3,6.7,2,10.8-.1,17.4-.9-.9-1.8-1.8-2.7-2.8q-24.8-25.3-51.9-47.9c-1.3-1-2.7-2-4-3.1-44.1-33.6-92.2-61-144.2-80.8q-3-1.1-6-2.3c-79.9-30.3-164.1-43.1-249.4-42.7-3.4,0-6.9,0-10.3,0-8.3,0-16.6,0-24.9,0,0,1.1-.1,2.2-.2,3.3-1.2,14.8-4.5,28.9-8.2,43.2-.3,1.3-.7,2.6-1,3.9-23.8,91.3-59.2,179.8-108.4,260.4-2.9,4.8-5.8,9.6-8.7,14.4-26.8,44.9-57.7,87.4-91.1,127.7-4,4.8-7.9,9.7-11.8,14.6-7.8,9.6-16.1,18.7-24.6,27.8-4.1,4.4-8,8.9-12,13.4-7.1,8.2-14.5,16.2-22,24.1-1.3,1.4-2.7,2.9-4.1,4.3-16,16.9-32,33.8-49.8,48.8-3.6,3.1-6.9,6.4-10.3,9.8-5.8,5.9-11.9,11.4-18.2,16.8-4.6,4-9.1,8.1-13.6,12.2-8.4,7.6-17,14.7-25.8,21.8-6.5,5.3-12.8,10.7-19.1,16.2-12.4,10.7-25.1,20.8-38,30.8-3.2,2.5-6.5,5.1-9.7,7.6-29.8,23.6-59.9,46.6-91.1,68.3-5.4,3.8-10.7,7.5-16.1,11.3-5.6,3.9-11.1,7.8-16.7,11.8-3,2.1-5.9,4.2-8.9,6.3-24.9,17.6-50.2,34.7-75.6,51.6-5.3,3.5-10.7,7.1-16,10.6-33.2,22.2-66.6,44-100.1,65.8-23.5,15.2-46.9,30.6-70.3,46-9.5,6.3-19.1,12.5-28.6,18.8q-61.6,40.2-122.2,82.1c-5.5,3.9-11.1,7.9-16.6,11.8-5.5,3.9-11.1,7.8-16.6,11.7-3.5,2.5-7,4.9-10.5,7.4-40.1,28.2-78.5,58.9-116.5,89.9-3.1,2.5-6.2,5-9.3,7.5-11.9,9.5-23,19.6-34,30.2q-8.5,8.1-12.9,8.1c-2.5-5-2.2-8.6-2.3-14.2,0-2.2,0-4.3,0-6.6,0-2.4,0-4.7,0-7.2q0-3.7,0-7.4c0-8,0-16,0-24.1q0-2,0-4.1c0-42.2,1.1-83.7,6.3-125.6.6-4.8,1.1-9.7,1.6-14.5,3.5-29.7,8.1-59.2,13-88.7.3-1.7.6-3.4.8-5.2,2.9-18,6.2-35.7,10.8-53.3,2.7-10.2,4.8-20.5,6.8-30.9,3.8-19.6,8.1-39,12.6-58.5.4-1.8.8-3.5,1.2-5.3,16.1-69.1,35.3-137.3,56.8-204.8,1.6-5,3.1-9.9,4.7-14.9,15.3-48.2,31.8-95.9,49.3-143.4q.9-2.4,1.8-4.8,4-10.9,6.2-15.3c-1,.6-1.9,1.3-2.9,2-86.6,57.6-179.9,100.6-285.7,99.5,3.2-10,9.3-17.6,15.5-26,2.3-3.2,4.6-6.3,7-9.5,1.2-1.6,2.3-3.2,3.5-4.8,4.7-6.4,9.2-13,13.7-19.6,8.7-12.8,17.5-25.5,26.3-38.1,1.3-1.9,2.7-3.8,4-5.8,9.6-13.8,19.2-27.6,28.9-41.3,6.2-8.8,12.3-17.6,18.4-26.4,1.4-2,2.7-4,4.2-6,2.6-3.8,5.3-7.6,7.9-11.4,8.7-12.6,17.6-25,26.7-37.3-4.1,0-8.2,5-11.1,7.4-74.4,61.4-154.3,114.9-240.5,158.3-1.5.8-3,1.5-4.5,2.3-103.7,52.6-218.6,79.6-334.8,68.4-4-.4-8-.7-12-1-1.9-.1-3.9-.3-5.9-.4q-2.6-.2-5.2-.4-4.2-.7-8.1-4.6c1.3-1.3,2.7-2.7,4.1-4,5.1-5,10.1-10.1,15.2-15.1,2.2-2.2,4.4-4.3,6.5-6.5q14.2-14,27.6-28.7c12.1-14.2,25.9-27,39.2-40.1q16.1-15.7,31.3-32.3c12-14.2,25.8-26.8,38.9-39.9q17.9-17.7,34.8-36.4c8.7-9.9,18.5-19,27.9-28.2,8.6-8.5,16.9-17.2,24.8-26.4,5.6-6.4,11.7-12.4,17.8-18.3q1.9-1.8,3.8-3.7c3-3,6-6,9-8.9-14,7.8-27.9,15.9-41.4,24.5-114.9,72.6-240.4,131.4-370,172.5q-3,1-6.1,2c-46.5,14.8-93.4,25.3-141.3,33.9-5.5,1-10.9,2.1-16.3,3.3-13,2.6-26.2,3.7-39.4,4.9-1.4.1-2.7.3-4.1.4-100.8,9.2-208.5,5.5-303.6-32.7-1.8-.7-3.7-1.5-5.6-2.2-1.4-.6-2.8-1.1-4.2-1.7,5.7-6.1,11.6-10.6,18.6-15.1,7.7-5.1,15.3-10.2,22.8-15.7,8.5-6.2,17-12.2,25.7-18.2,23.7-16.2,47.4-32.5,70.4-49.6,12.4-9.2,25.2-18,38-26.7,9.2-6.2,18.3-12.6,27.3-19,10.4-7.5,21-14.8,31.7-22.1,13.8-9.4,27.3-19,40.8-28.8,15.6-11.4,31.5-22.4,47.4-33.5,8.3-5.8,16.6-11.6,24.8-17.4,1.6-1.1,3.2-2.3,4.9-3.4,10.3-7.2,20.5-14.4,30.8-21.7,21.9-15.5,43.8-30.8,65.8-46.1q2.5-1.8,5.1-3.6c3.1-2.2,6.3-4.4,9.4-6.6,13.9-9.7,27.8-19.6,41.6-29.5-2,.7-3.9,1.3-5.9,2-7.4,2.5-14.9,5-22.3,7.5-3.2,1.1-6.4,2.1-9.6,3.2-18.8,6.3-37.7,12.5-56.6,18.3-6,1.9-12,3.8-18,5.8-18.8,6.1-37.5,11.8-56.8,16.3-9,2.1-17.8,4.5-26.6,7.1-16.9,4.9-34,8.9-51.2,12.8-1.7.4-3.3.8-5,1.2-27.2,6.3-54.5,11.8-82,16.6-4.9.9-9.7,1.8-14.5,2.8-13.2,2.7-26.4,4.8-39.7,6.9-1.3.2-2.7.4-4.1.7-30.8,4.9-61.4,8.6-92.6,10.7q-3.3.2-6.6.5c-1.9.1-3.9.3-5.9.4q-5.7.4-11.2,1.5c-7.3,1.2-14.6,1.7-22.1,2.1q-2.3.1-4.6.2c-17.4.9-34.8,1-52.2,1-1.7,0-3.4,0-5.2,0-112.6-.2-222-14.1-328.8-50.7-1.3-.4-2.6-.9-4-1.4-12.3-4.2-24.5-8.5-36.1-14.6-4.2-2.2-8.6-4.3-12.9-6.3q-65.1-30.4-88.3-48.3v-3.9q3.4-1.3,6.9-2.6c14.7-5.7,29.3-11.4,43.6-18.1,8.2-3.7,16.6-6.9,25-10.2,11.9-4.7,23.6-9.6,35.1-15.1,11.3-5.4,22.6-9.9,34.4-14.1,8.9-3.3,17.3-7.1,25.7-11.5,7.7-3.7,15.7-6.6,23.6-9.5,8.7-3.4,17.2-7.4,25.7-11.4,9.8-4.5,19.7-8.6,29.6-12.6,14.4-5.9,28.7-12,43-18.4,6.8-3,13.7-5.9,20.7-8.6,11.3-4.5,22.4-9.3,33.5-14.2,21.7-9.5,43.5-18.8,65.4-27.9,5.1-2.1,10.1-4.2,15.2-6.3,1.3-.5,2.5-1.1,3.8-1.6,14.5-6.1,29-12.2,43.5-18.4,1.3-.6,2.7-1.1,4.1-1.7,5.4-2.3,10.9-4.6,16.3-6.9,9.1-3.9,18.1-7.7,27.2-11.5,23.8-10.1,47.7-20.2,71.5-30.4,36.1-15.4,72.2-30.7,108.4-45.9,18.6-7.8,37.1-15.6,55.7-23.5q2-.8,4-1.7c17.8-7.6,35.6-15.2,53.4-22.8-20.6,1.2-41,3.1-61.4,5.2-112.4,11.7-227.4,16-340.2,6.8-4.2-.3-8.5-.7-12.8-1-31-2.3-61.7-4.9-92.3-10.3-6-1-12.1-1.8-18.1-2.6-20.1-2.7-40.1-6.2-60-9.9-1.4-.3-2.7-.5-4.2-.8-4-.7-7.9-1.5-11.9-2.2-2.3-.4-4.6-.9-6.9-1.3-6.2-1.4-12.1-3.3-18.1-5.3-4.7-1-9.5-1.9-14.3-2.8-9.6-1.8-18.7-4-27.9-7.3-5.7-1.9-11.6-3.4-17.4-4.8-27.4-7.2-54.9-16-80.8-27.4-4.7-2-9.4-3.9-14.2-5.7-15-5.7-29.5-11.3-43.3-19.5-4.7-2.6-9.5-4.7-14.5-6.7-8.3-3.7-16.4-8-24.5-12.2-1.8-.9-3.6-1.8-5.4-2.8-10.2-5.3-19.5-11.1-28.7-17.9-3.2-1.8-6.4-3.6-9.6-5.4-36-21.2-69-48.2-99.6-76.5-2.1-1.9-4.1-3.7-6.2-5.6-2.1-1.9-4.3-3.8-6.4-5.8-1-.9-2-1.8-3-2.7-5.2-4.7-9.6-9.5-13.7-15.2,1.7-.3,3.5-.6,5.3-.9,34.9-5.7,69.8-11.6,104.7-18,1.5-.3,3.1-.6,4.6-.9,14.6-2.7,29.2-5.4,43.7-8.6,14-3.1,28.1-5.4,42.3-7.7,24.9-4.1,49.7-8.3,74.3-13.7,27.1-5.9,54.4-10.4,81.7-14.8,14.4-2.3,28.5-5.1,42.7-8.2,8-1.7,16.1-3,24.2-4.1,14.2-2.1,28.1-4.9,42-8.2,8.7-2,17.2-3.3,26-4.1q3.8-.3,7.5-2.4c2.8-.5,5.6-.9,8.4-1.3,1.7-.2,3.4-.5,5.1-.7,3.5-.5,7.1-1,10.6-1.5,9.8-1.4,19-3.5,28.5-6.2,6.2-1.1,12.5-2,18.8-2.8,13.6-1.9,26.9-4.4,40.2-7.7,6.2-1.4,12.3-2.1,18.7-2.6q4.6-.5,10.2-2.4c8.5-2.5,17.2-4,26-5.5,1.8-.3,3.5-.6,5.3-.9,3.8-.7,7.5-1.3,11.3-2,5.9-1,11.8-2.1,17.6-3.1,7.9-1.4,15.9-2.8,23.8-4.2,14.9-2.6,29.9-5.3,44.8-8,2.8-.5,5.6-1,8.4-1.5,3.8-.7,7.6-1.4,11.5-2.1,2.1-.4,4.3-.8,6.4-1.2q4.6-.6,6.7-3-2.9-.4-5.9-.9c-94.4-13.7-192.1-30.5-281.8-63.7-7.4-2.7-14.9-5.2-22.4-7.6-27-8.9-53.8-18-80-29.3-1.6-.7-3.2-1.4-4.9-2.1-24.1-10.3-47.9-20.9-71.2-33-1.4-.7-2.7-1.4-4.2-2.2-17.8-9.2-35.2-18.8-52.4-29-1.9-1.1-3.8-2.2-5.8-3.3q-2.7-1.6-5.4-3.2c-1.6-.9-3.2-1.8-4.8-2.8-1.1-.8-2.3-1.6-3.4-2.5v-3.9q-1.5-.2-3.1-.4c-6.7-2.1-12.1-6-17.9-9.9q-1.9-1.3-3.9-2.6c-24-16.4-46.8-34.2-68.8-53.3q-2.2-1.9-4.4-3.8c-2.5-2.2-5-4.4-7.5-6.6-2.7-2.4-5.4-4.7-8.1-7-8.5-7.4-16.1-14.9-23.4-23.5-5.1-5.8-10.6-11-16.1-16.3q-2.9-3.2-2.9-7.1h-3.9c-3.4-4-6.6-7.9-9.8-12.1q-1.4-1.8-2.9-3.7c-2-2.6-3.9-5.1-5.9-7.7-2.7-3.5-5.4-7.1-8.2-10.6q-27.9-35.8-27.9-40c57.3-.2,114.6.2,171.9.7,6.9,0,13.9.1,20.8.2,73.5.5,147,1.2,220.5,2.1,5.8,0,11.5.1,17.3.2,34.1.4,68.2.8,102.3,1.2,21.2.3,42.5.5,63.7.8,1.7,0,3.4,0,5.2,0,82.9,1,165.7.9,248.6.7-2.1-.7-4.3-1.5-6.5-2.2-8-2.7-16-5.5-24-8.2-3.5-1.2-6.9-2.4-10.4-3.5-23.7-8.1-47.3-16.4-70.4-26.1-3-1.2-6-2.5-8.9-3.7-61.3-25.3-120.9-53.6-178.2-87-1.7-1-3.4-2-5.1-3-58.7-34.1-114.1-74.4-163.5-121-3-2.8-6-5.5-9-8.2-21.4-19.2-40.3-40.4-58.3-62.9-1-1.2-1.9-2.4-2.9-3.6-21.6-27.2-40.8-55.9-58.2-86.1-.7-1.3-1.5-2.5-2.2-3.9-3.7-6.6-4.9-9.9-4.9-17.6h-3.9c-1-2.2-1.9-4.4-2.9-6.7-1.3-2.9-2.5-5.8-3.8-8.7-.6-1.5-1.3-2.9-1.9-4.4-.6-1.4-1.2-2.8-1.8-4.2-.6-1.3-1.1-2.6-1.7-3.9-1.1-2.4-2.2-4.8-3.4-7.2,11.9,1.2,23.4,2.9,35.1,5.4,14.5,3,28.9,5.9,43.4,8.8,4.3.9,8.7,1.7,13,2.6,2.3.5,4.5.9,6.8,1.4,11.9,2.4,23.7,4.7,35.6,7.1,5.1,1,10.2,2,15.3,3.1,2.6.5,5.3,1.1,7.9,1.6,1.3.3,2.7.5,4,.8,1.4.3,2.7.5,4.1.8q2.1.4,4.2.8c2.8.6,5.7,1.1,8.5,1.7,1.4.3,2.9.6,4.3.9,2.9.6,5.8,1.2,8.7,1.7,1.5.3,2.9.6,4.4.9,3,.6,5.9,1.2,8.9,1.8q2.2.4,4.5.9c9,1.8,18,3.6,27,5.4,1.5.3,3,.6,4.5.9,3,.6,6,1.2,9,1.8,3,.6,5.9,1.2,8.9,1.8,7.4,1.5,14.7,2.9,22.1,4.4,12.9,2.6,25.7,5.1,38.6,7.7,6.8,1.4,13.6,2.7,20.4,4.1,1.3.3,2.6.5,3.9.8,15.9,3.2,31.9,6.4,47.8,9.6,4.6.9,9.3,1.9,13.9,2.8,3.9.8,7.7,1.6,11.6,2.3,12.1,2.4,24.2,4.7,36.3,6.8,17.2,3,34.2,6.4,51.3,9.9,5.5,1.1,11,2.2,16.4,3.4,15.6,3.2,31.1,6.3,46.7,9.5,11.4,2.3,22.9,4.7,34.3,7,1.9.4,3.7.8,5.6,1.1,22,4.5,43.9,8.7,66,12.5,16.3,2.8,32.5,6,48.7,9.7,38,8.7,76.2,16.1,114.4,23.7,11.1,2.2,22.1,4.4,33.2,6.6,8.7,1.7,17.3,3.5,26,5.2,4.1.8,8.2,1.6,12.2,2.5,20.6,4.1,41.2,8.2,62,11.4,9.9,1.6,19.5,3.8,29.1,6.4,6.1,1.5,12.1,2.4,18.2,3.3,8.1,1.2,15.9,2.6,23.8,4.8,11.4,3,22.8,4.9,34.4,6.8,7.1,1.1,14.2,2.3,21.2,3.7,1.7.3,3.4.7,5.2,1,2,.4,4,.8,6.1,1.2q3.6.7,7.4,1.5c4.2.8,8.4,1.7,12.6,2.5,12.9,2.6,25.8,5.2,38.7,7.8,8.7,1.7,17.3,3.5,26,5.3,8.4,1.7,16.8,3.4,25.3,5.1,3.2.6,6.4,1.3,9.6,1.9,4.5.9,8.9,1.8,13.4,2.7,1.3.3,2.7.5,4,.8,3.1.6,6.2,1.1,9.3,1.6.6-.6,1.3-1.3,2-2q-1.2-1.2-2.5-2.4c-8.7-8.6-16.8-17.5-24.8-26.8-1.6-1.8-3.1-3.6-4.7-5.5-14.8-17.1-28.6-34.9-42.1-53-1.1-1.4-2.1-2.8-3.2-4.3-24.3-32.7-45.9-66.9-65-102.9-.7-1.3-1.3-2.5-2-3.8-12.7-24-23-49-33.1-74.2-.8-2-1.7-4.1-2.5-6.1-6-15.1-10.5-30.1-14.2-45.9-.6-2.4-1.2-4.9-1.8-7.4-7.8-33.6-13.6-67.9-14.7-102.4,12.7,6.7,25,13.8,37,21.6,10.5,6.7,21.1,12.9,31.8,19.3,4.6,2.7,9.2,5.5,13.7,8.2,1.5.9,3.1,1.8,4.6,2.8,4.5,2.7,9.1,5.5,13.6,8.2,1.6.9,3.2,1.9,4.8,2.9,4.4,2.6,8.7,5.3,13.1,7.9,1.3.8,2.6,1.6,4,2.4,2.6,1.6,5.2,3.2,7.8,4.8,5.2,3.2,10,5.8,15.8,7.8v3.9c1.7.5,3.4,1,5.1,1.5,6.8,2.5,12.1,5.5,18.1,9.3,2.2,1.4,4.5,2.8,6.7,4.2,1.2.7,2.3,1.5,3.5,2.2,5.9,3.6,11.8,7.2,17.8,10.7,1.2.7,2.4,1.4,3.7,2.2,2.5,1.5,5,3,7.6,4.5,22,13,43.9,26.1,65.7,39.4,1.1.7,2.3,1.4,3.4,2.1,3.3,2,6.7,4.1,10,6.1,18.3,11.1,36.7,22.1,55,33.1,12.6,7.5,25.2,15.1,37.8,22.8,25,15.2,50.1,30.3,75.3,45.2,25,14.8,49.7,29.9,74.5,45-4.4-5.6-8.9-11.1-13.5-16.6-17.7-21.2-34.5-43-50.8-65.3-1.1-1.5-2.3-3.1-3.4-4.7-21.5-29.4-41.5-59.4-60.3-90.6-2.4-4-4.8-7.9-7.3-11.9-15.7-25.5-28.3-52.4-41.1-79.4-.8-1.6-1.5-3.3-2.3-5q-1.1-2.4-2.3-4.8c-2-4.2-4.2-8.4-6.3-12.5-4-7.9-6.9-16-9.7-24.3-2.6-7.8-5.3-15.5-8.6-23-11.1-26.5-17.3-55.4-23.2-83.5-.5-2.3-1-4.6-1.5-7-2.7-13.3-4.4-26.3-5.2-39.8-.4-5.3-1.3-10.1-2.4-15.3-2.5-15.1-2.3-30.1-2.3-45.3,0-1.5,0-3,0-4.5,0-22.6,1-44.8,4.3-67.2,5.9,2.6,9.7,5.5,14.1,10.1,5.9,6.1,12,11.6,18.4,17.2,5.5,4.8,10.8,9.7,16.2,14.7,7.7,7.1,15.4,14,23.3,20.8,6.9,6,13.6,12.2,20.3,18.3,4.2,3.8,8.5,7.6,12.9,11.4,7.6,6.6,15,13.4,22.4,20.2,9.4,8.6,18.9,17.2,28.4,25.7,3.3,2.9,6.5,5.8,9.8,8.8,1.6,1.4,3.2,2.9,4.9,4.4q34.1,30.7,39,35.1c3.2,2.9,6.4,5.8,9.6,8.6,9,8,17.9,16.1,26.7,24.3,7.5,6.9,15.2,13.8,22.9,20.5,6.4,5.6,12.7,11.4,18.9,17.2,5.4,4.9,10.8,9.8,16.3,14.6,8.2,7.1,16,14.4,24,21.8,6.8,6.3,13.8,12.5,20.8,18.7,5.3,4.7,10.6,9.5,15.8,14.3,6.4,5.9,12.9,11.8,19.5,17.6,7.6,6.6,14.9,13.3,22.3,20.1,9.4,8.6,18.9,17.2,28.4,25.7,3.3,2.9,6.5,5.8,9.8,8.8,1.6,1.4,3.2,2.9,4.8,4.3,3.4,3.1,6.9,6.2,10.3,9.4q2.6,2.4,5.2,4.8c1.6,1.4,3.1,2.9,4.7,4.4q4.1,3.8,10,5.4c-.8-1.4-1.5-2.8-2.3-4.2-34-60.7-64.8-121.7-89.3-186.9-.7-1.8-1.4-3.6-2.1-5.4-15.8-41.7-26.9-83.3-35-127.2-.4-2-.8-4-1.1-6-4.6-24-8.2-47.5-8.6-72,0-2.1,0-4.3-.1-6.5-.5-30.6-.3-60.7,4-91,.2-1.4.4-2.7.6-4.1q9.5-66.4,18.9-75.8Z"/>
  <path class="st29" d="M2064.2,1618.6c6.4,5.9,10.4,11.8,14.5,19.4,6.8,12.3,14,24.2,21.5,36.1,7.5,12,14.9,24.1,22.2,36.3,9,15,18.6,29.6,28.6,43.9q1.2,1.7,2.5,3.5c2.3,3.3,4.6,6.5,6.9,9.8q3.3,5.1,3.3,9h3.9c2.3,3.3,4.5,6.7,6.6,10.1,4.5,7.5,9.3,14.3,14.9,21.1,1.8,2.4,3.6,4.9,5.4,7.3,4.3,5.7,8.7,11.1,13.5,16.3,15.2,16.9,29,35.2,42,53.8,3.4,4.5,7.2,8.3,11.2,12.3,2.7,3.2,5.3,6.5,7.9,9.8,8.3,10.3,17.1,20,26.1,29.7,4,4.3,7.9,8.7,11.8,13.2,15.8,18.2,32.3,35.6,49.4,52.5,3.1,3.1,6.2,6.2,9.3,9.3,2,2,4,4,6,6q2.7,2.7,5.4,5.4,5,4.9,10.6,9.1c1.4,1.2,2.8,2.3,4.2,3.5v3.9h5.9q3.2,3.1,6.6,7.2c16.2,19.6,45,52.9,69.5,61.1,3.3,3.2,6.5,6.5,9.8,9.8,9.3,8.4,19.2,16.2,29.3,23.8,1.5,1.1,2.9,2.2,4.4,3.3,4.4,3.3,8.8,6.6,13.1,9.9,1.2.9,2.4,1.8,3.6,2.8,23.4,17.7,47.9,33.8,72.4,49.9,1.5,1,3,1.9,4.5,2.9,11.7,7.7,23.5,15,35.7,21.8,9.4,5.2,18.6,10.6,27.8,16,10.4,6,20.9,12,31.4,17.8,1.3.7,2.6,1.4,3.9,2.2,19.6,10.7,39.4,20.2,59.9,29,5,2.2,9.9,4.4,14.9,6.7,34.2,15.6,68.9,28.7,104.7,40.2,4.9,1.6,9.7,3.2,14.6,5,146,51.6,303.7,62.8,457.3,61.3-3.8,12.4-9.8,22.9-16.3,34.1-1.3,2.2-2.6,4.4-3.9,6.7-29.8,51-64.2,99.5-101.8,145-4,4.8-7.9,9.7-11.8,14.6-7.8,9.6-16.1,18.7-24.6,27.8-4.1,4.4-8,8.9-12,13.4-7.1,8.2-14.5,16.2-22,24.1-1.3,1.4-2.7,2.9-4.1,4.3-16,16.9-32,33.8-49.8,48.8-3.6,3.1-6.9,6.4-10.3,9.8-5.8,5.9-11.9,11.4-18.2,16.8-4.6,4-9.1,8.1-13.6,12.2-8.4,7.6-17,14.7-25.8,21.8-6.5,5.3-12.8,10.7-19.1,16.2-12.4,10.7-25.1,20.8-38,30.8-3.2,2.5-6.5,5.1-9.7,7.6-29.8,23.6-59.9,46.6-91.1,68.3-5.4,3.8-10.7,7.5-16.1,11.3-5.6,3.9-11.1,7.8-16.7,11.8-3,2.1-5.9,4.2-8.9,6.3-24.9,17.6-50.2,34.7-75.6,51.6-5.3,3.5-10.7,7.1-16,10.6-33.2,22.2-66.6,44-100.1,65.8-23.5,15.2-46.9,30.6-70.3,46-9.5,6.3-19.1,12.5-28.6,18.8q-61.6,40.2-122.2,82.1c-5.5,3.9-11.1,7.9-16.6,11.8-5.5,3.9-11.1,7.8-16.6,11.7-3.5,2.5-7,4.9-10.5,7.4-40.1,28.2-78.5,58.9-116.5,89.9-3.1,2.5-6.2,5-9.3,7.5-11.9,9.5-23,19.6-34,30.2q-8.5,8.1-12.9,8.1c-2.5-5-2.2-8.6-2.3-14.2q0-3.3,0-6.6c0-2.4,0-4.7,0-7.2q0-3.7,0-7.4c0-8,0-16,0-24.1q0-2,0-4.1c0-42.2,1.1-83.7,6.3-125.6.6-4.8,1.1-9.7,1.6-14.5,3.5-29.7,8.1-59.2,13-88.7.3-1.7.6-3.4.8-5.2,2.9-18,6.2-35.7,10.8-53.3,2.7-10.2,4.8-20.5,6.8-30.9,3.8-19.6,8.1-39,12.6-58.5.4-1.8.8-3.5,1.2-5.3,16.1-69.1,35.3-137.3,56.8-204.8,1.6-5,3.1-9.9,4.7-14.9,15.3-48.2,31.8-95.9,49.3-143.4q.9-2.4,1.8-4.8,4-10.9,6.2-15.3c-1,.6-1.9,1.3-2.9,2-86.6,57.6-179.9,100.6-285.7,99.5,3.2-10,9.3-17.6,15.5-26,2.3-3.2,4.6-6.3,7-9.5,1.2-1.6,2.3-3.2,3.5-4.8,4.7-6.4,9.2-13,13.7-19.6,8.7-12.8,17.5-25.5,26.3-38.1,1.3-1.9,2.7-3.8,4-5.8,9.6-13.8,19.2-27.6,28.9-41.3,6.2-8.8,12.3-17.6,18.4-26.4,1.4-2,2.7-4,4.2-6,2.6-3.8,5.3-7.6,7.9-11.4,8.7-12.6,17.6-25,26.7-37.3-4.1,0-8.2,5-11.1,7.4-74.4,61.4-154.3,114.9-240.5,158.3-1.5.8-3,1.5-4.5,2.3-103.7,52.6-218.6,79.6-334.8,68.4-4-.4-8-.7-12-1-1.9-.1-3.9-.3-5.9-.4q-2.6-.2-5.2-.4-4.2-.7-8.1-4.6c1.3-1.3,2.7-2.7,4.1-4,5.1-5,10.1-10.1,15.2-15.1,2.2-2.2,4.4-4.3,6.5-6.5q14.2-14,27.6-28.7c12.1-14.2,25.9-27,39.2-40.1q16.1-15.7,31.3-32.3c12-14.2,25.8-26.8,38.9-39.9q17.9-17.7,34.8-36.4c8.7-9.9,18.5-19,27.9-28.2,8.6-8.5,16.9-17.2,24.8-26.4,5.6-6.4,11.7-12.4,17.8-18.3,1.2-1.2,2.5-2.5,3.8-3.7,3-3,6-6,9-8.9-14,7.8-27.9,15.9-41.4,24.5-114.9,72.6-240.4,131.4-370,172.5-2,.6-4,1.3-6.1,2-46.5,14.8-93.4,25.3-141.3,33.9-5.5,1-10.9,2.1-16.3,3.3-13,2.6-26.2,3.7-39.4,4.9q-2,.2-4.1.4c-100.8,9.2-208.5,5.5-303.6-32.7-1.8-.7-3.7-1.5-5.6-2.2-1.4-.6-2.8-1.1-4.2-1.7,5.7-6.1,11.6-10.6,18.6-15.1,7.7-5.1,15.3-10.2,22.8-15.7,8.5-6.2,17-12.2,25.7-18.2,23.7-16.2,47.4-32.5,70.4-49.6,12.4-9.2,25.2-18,38-26.7,9.2-6.2,18.3-12.6,27.3-19,10.4-7.5,21-14.8,31.7-22.1,13.8-9.4,27.3-19,40.8-28.8,15.6-11.4,31.5-22.4,47.4-33.5,8.3-5.8,16.6-11.6,24.8-17.4,1.6-1.1,3.2-2.3,4.9-3.4,10.3-7.2,20.5-14.4,30.8-21.7,21.9-15.5,43.8-30.8,65.8-46.1,1.7-1.2,3.4-2.4,5.1-3.6,3.1-2.2,6.3-4.4,9.4-6.6,13.9-9.7,27.8-19.6,41.6-29.5-2,.7-3.9,1.3-5.9,2-7.4,2.5-14.9,5-22.3,7.5-3.2,1.1-6.4,2.1-9.6,3.2-18.8,6.3-37.7,12.5-56.6,18.3-6,1.9-12,3.8-18,5.8-18.8,6.1-37.5,11.8-56.8,16.3-9,2.1-17.8,4.5-26.6,7.1-16.9,4.9-34,8.9-51.2,12.8-1.7.4-3.3.8-5,1.2-27.2,6.3-54.5,11.8-82,16.6-4.9.9-9.7,1.8-14.5,2.8-13.2,2.7-26.4,4.8-39.7,6.9q-2,.3-4.1.7c-30.8,4.9-61.4,8.6-92.6,10.7-2.2.1-4.4.3-6.6.5-1.9.1-3.9.3-5.9.4q-5.7.4-11.2,1.5c-7.3,1.2-14.6,1.7-22.1,2.1-1.5,0-3.1.2-4.6.2-17.4.9-34.8,1-52.2,1-1.7,0-3.4,0-5.2,0-112.6-.2-222-14.1-328.8-50.7-1.3-.4-2.6-.9-4-1.4-12.3-4.2-24.5-8.5-36.1-14.6-4.2-2.2-8.6-4.3-12.9-6.3q-65.1-30.4-88.3-48.3v-3.9c2.3-.9,4.6-1.7,6.9-2.6,14.7-5.7,29.3-11.4,43.6-18.1,8.2-3.7,16.6-6.9,25-10.2,11.9-4.7,23.6-9.6,35.1-15.1,11.3-5.4,22.6-9.9,34.4-14.1,8.9-3.3,17.3-7.1,25.7-11.5,7.7-3.7,15.7-6.6,23.6-9.5,8.7-3.4,17.2-7.4,25.7-11.4,9.8-4.5,19.7-8.6,29.6-12.6,14.4-5.9,28.7-12,43-18.4,6.8-3,13.7-5.9,20.7-8.6,11.3-4.5,22.4-9.3,33.5-14.2,21.7-9.5,43.5-18.8,65.4-27.9,5.1-2.1,10.1-4.2,15.2-6.3q1.9-.8,3.8-1.6c14.5-6.1,29-12.2,43.5-18.4,1.3-.6,2.7-1.1,4.1-1.7,5.4-2.3,10.9-4.6,16.3-6.9,9.1-3.9,18.1-7.7,27.2-11.5,23.8-10.1,47.7-20.2,71.5-30.4q72.2-30.8,108.4-45.9c12.7-5.3,25.4-10.6,38-16q2.1-.9,4.2-1.8c5.6-2.4,11.2-4.8,16.8-7.1,18.2-7.8,36.5-15.4,55-22.6q6.9-2.3,12.7-6.3c5.7-1,11.5-1.8,17.2-2.6,3.7-.5,7.5-1.1,11.2-1.6,2-.3,4-.6,6-.9,69.6-10,138.8-22.5,207.4-37.8,2.3-.5,4.7-1,7.1-1.6,17.2-3.9,34.3-7.9,51.4-12.1,1.5-.4,3-.7,4.5-1.1,80.2-19.6,159.4-42.8,237.4-69.7,3.6-1.3,7.2-2.5,10.9-3.7,87.6-30.1,177.6-64.4,258.1-110.7Z"/>
  <path class="st21" d="M476.8,624c11.9,1.2,23.4,2.9,35.1,5.4,14.5,3,28.9,5.9,43.4,8.8,4.3.9,8.7,1.7,13,2.6,2.3.5,4.5.9,6.8,1.4,11.9,2.4,23.7,4.7,35.6,7.1,5.1,1,10.2,2,15.3,3.1,2.6.5,5.3,1.1,7.9,1.6,1.3.3,2.7.5,4,.8,1.4.3,2.7.5,4.1.8,1.4.3,2.8.6,4.2.8,2.8.6,5.7,1.1,8.5,1.7,1.4.3,2.9.6,4.3.9,2.9.6,5.8,1.2,8.7,1.7,1.5.3,2.9.6,4.4.9,3,.6,5.9,1.2,8.9,1.8q2.2.4,4.5.9c9,1.8,18,3.6,27,5.4,1.5.3,3,.6,4.5.9,3,.6,6,1.2,9,1.8,3,.6,5.9,1.2,8.9,1.8,7.4,1.5,14.7,2.9,22.1,4.4,12.9,2.6,25.7,5.1,38.6,7.7,6.8,1.4,13.6,2.7,20.4,4.1,1.3.3,2.6.5,3.9.8,15.9,3.2,31.9,6.4,47.8,9.6,4.6.9,9.3,1.9,13.9,2.8,3.9.8,7.7,1.6,11.6,2.3,12,2.4,24.1,4.7,36.2,6.8,17.6,3.1,35.1,6.6,52.6,10.2,5.6,1.2,11.3,2.3,16.9,3.4,11.9,2.4,23.9,4.9,35.8,7.3,13.9,2.8,27.9,5.7,41.8,8.5,5.5,1.1,11.1,2.3,16.6,3.4,3.4.7,6.8,1.4,10.2,2.1q2.3.5,4.6.9c6.7,1.4,13.2,2.5,20,3.3,7.1,1.3,8.6,3.5,12.8,9.2,5.3,6.3,11.9,11.1,18.3,16.2,6.6,5.3,13,10.9,19.4,16.4,11.2,9.7,22.7,18.9,34.4,28,5.9,4.6,11.8,9.3,17.7,14.1,15,12.1,30.3,23.8,45.8,35.2,3.9,2.9,7.7,5.8,11.6,8.7,36.9,27.9,74.7,54.5,113.2,80,5,3.3,9.9,6.6,14.9,9.9q1.9,1.3,3.8,2.5c6.7,4.5,13.4,9.1,20,13.8,14.6,10.3,30,19.2,45.2,28.4,2,1.2,4.1,2.4,6.1,3.7,47.1,28.4,94.6,56.1,144,80.2,3.5,1.8,7,3.5,10.5,5.3,35.4,17.9,71.5,34.7,108.3,49.6,2.7,1.1,5.3,2.2,7.9,3.3,25.2,10.5,51.2,18.8,77.1,27.3q2.3.7,4.5,1.5c2.8.9,5.7,1.8,8.5,2.8,3.8,1.2,7.6,2.5,11.4,3.9q1.9.7,3.9,1.3c5.5,2.1,9.2,3.6,12.5,8.6.5,1.5.9,3,1.4,4.6.5,1.7,1.1,3.4,1.6,5.1.5,1.8,1,3.6,1.5,5.5.6,1.9,1.1,3.7,1.7,5.7,1.6,5.3,3.2,10.7,4.7,16,19.6,66.7,47.6,133.3,79.1,195.3,6.6,13.1,13,26.3,19.4,39.5q15.8,32.9,32.2,65.5c.9,1.7,1.7,3.4,2.6,5.1,10.9,21.4,21.9,42.6,34.7,62.9,2,3.3,3.8,6.6,5.6,10q-2,5.9-6.6,8.8-3.1,1.5-6.2,3.1c-1.1.6-2.2,1.1-3.4,1.7-3.7,1.9-7.5,3.7-11.3,5.6q-2,1-3.9,1.9c-47.9,23.6-97.2,44-146.7,63.8-4.9,1.9-9.7,3.9-14.6,5.9-15.7,6.4-31.5,12.3-47.6,17.7q-3.6,1.2-7.3,2.5c-5.2,1.8-10.4,3.5-15.5,5.3-5.3,1.8-10.6,3.6-15.9,5.4-165.9,57.1-336.9,95.6-510.3,120.9q-2.1.3-4.3.6c-3.8.5-7.5,1-11.3,1.5q-6.2.8-11.1,3.1c-6.5,2.5-12.9,2.6-19.8,2.9-12.2.6-24.4,1.4-36.5,2.7q-2.3.2-4.7.5c-3.2.3-6.4.7-9.6,1-112.3,11.8-227.2,16-339.9,6.8-4.2-.3-8.5-.7-12.8-1-31-2.3-61.7-4.9-92.3-10.3-6-1-12.1-1.8-18.1-2.6-20.1-2.7-40.1-6.2-60-9.9-1.4-.3-2.7-.5-4.2-.8-4-.7-7.9-1.5-11.9-2.2-2.3-.4-4.6-.9-6.9-1.3-6.2-1.4-12.1-3.3-18.1-5.3-4.7-1-9.5-1.9-14.3-2.8-9.6-1.8-18.7-4-27.9-7.3-5.7-1.9-11.6-3.4-17.4-4.8-27.4-7.2-54.9-16-80.8-27.4-4.7-2-9.4-3.9-14.2-5.7-15-5.7-29.5-11.3-43.3-19.5-4.7-2.6-9.5-4.7-14.5-6.7-8.3-3.7-16.4-8-24.5-12.2-1.8-.9-3.6-1.8-5.4-2.8-10.2-5.3-19.5-11.1-28.7-17.9-3.2-1.8-6.4-3.6-9.6-5.4-36-21.2-69-48.2-99.6-76.5-2.1-1.9-4.1-3.7-6.2-5.6-2.1-1.9-4.3-3.8-6.4-5.8-1-.9-2-1.8-3-2.7-5.2-4.7-9.6-9.5-13.7-15.2,1.7-.3,3.5-.6,5.3-.9,34.9-5.7,69.8-11.6,104.7-18q2.3-.4,4.6-.9c14.6-2.7,29.2-5.4,43.7-8.6,14-3.1,28.1-5.4,42.3-7.7,24.9-4.1,49.7-8.3,74.3-13.7,27.1-5.9,54.4-10.4,81.7-14.8,14.4-2.3,28.5-5.1,42.7-8.2,8-1.7,16.1-3,24.2-4.1,14.2-2.1,28.1-4.9,42-8.2,8.7-2,17.2-3.3,26-4.1q3.8-.3,7.5-2.4c2.8-.5,5.6-.9,8.4-1.3q2.5-.4,5.1-.7c3.5-.5,7.1-1,10.6-1.5,9.8-1.4,19-3.5,28.5-6.2,6.2-1.1,12.5-2,18.8-2.8,13.6-1.9,26.9-4.4,40.2-7.7,6.2-1.4,12.3-2.1,18.7-2.6q4.6-.5,10.2-2.4c8.5-2.5,17.2-4,26-5.5,1.8-.3,3.5-.6,5.3-.9,3.8-.7,7.5-1.3,11.3-2,5.9-1,11.8-2.1,17.6-3.1,7.9-1.4,15.9-2.8,23.8-4.2,14.9-2.6,29.9-5.3,44.8-8,2.8-.5,5.6-1,8.4-1.5,3.8-.7,7.6-1.4,11.5-2.1,2.1-.4,4.3-.8,6.4-1.2q4.6-.6,6.7-3c-2-.3-3.9-.6-5.9-.9-94.4-13.7-192.1-30.5-281.8-63.7-7.4-2.7-14.9-5.2-22.4-7.6-27-8.9-53.8-18-80-29.3-1.6-.7-3.2-1.4-4.9-2.1-24.1-10.3-47.9-20.9-71.2-33-1.4-.7-2.7-1.4-4.2-2.2-17.8-9.2-35.2-18.8-52.4-29-1.9-1.1-3.8-2.2-5.8-3.3-1.8-1-3.6-2.1-5.4-3.2q-2.4-1.4-4.8-2.8c-1.1-.8-2.3-1.6-3.4-2.5v-3.9q-1.5-.2-3.1-.4c-6.7-2.1-12.1-6-17.9-9.9-1.3-.9-2.6-1.7-3.9-2.6-24-16.4-46.8-34.2-68.8-53.3q-2.2-1.9-4.4-3.8c-2.5-2.2-5-4.4-7.5-6.6-2.7-2.4-5.4-4.7-8.1-7-8.5-7.4-16.1-14.9-23.4-23.5-5.1-5.8-10.6-11-16.1-16.3q-2.9-3.2-2.9-7.1h-3.9c-3.4-4-6.6-7.9-9.8-12.1-.9-1.2-1.9-2.5-2.9-3.7-2-2.6-3.9-5.1-5.9-7.7-2.7-3.5-5.4-7.1-8.2-10.6q-27.9-35.8-27.9-40c57.3-.2,114.6.2,171.9.7,6.9,0,13.9.1,20.8.2,73.5.5,147,1.2,220.5,2.1,5.8,0,11.5.1,17.3.2,34.1.4,68.2.8,102.3,1.2,21.2.3,42.5.5,63.7.8,1.7,0,3.4,0,5.2,0,82.9,1,165.7.9,248.6.7-2.1-.7-4.3-1.5-6.5-2.2-8-2.7-16-5.5-24-8.2-3.5-1.2-6.9-2.4-10.4-3.5-23.7-8.1-47.3-16.4-70.4-26.1-3-1.2-6-2.5-8.9-3.7-61.3-25.3-120.9-53.6-178.2-87q-2.5-1.5-5.1-3c-58.7-34.1-114.1-74.4-163.5-121-3-2.8-6-5.5-9-8.2-21.4-19.2-40.3-40.4-58.3-62.9-1-1.2-1.9-2.4-2.9-3.6-21.6-27.2-40.8-55.9-58.2-86.1-.7-1.3-1.5-2.5-2.2-3.9-3.7-6.6-4.9-9.9-4.9-17.6h-3.9q-1.4-3.3-2.9-6.7c-1.3-2.9-2.5-5.8-3.8-8.7-.6-1.5-1.3-2.9-1.9-4.4q-.9-2.1-1.8-4.2c-.6-1.3-1.1-2.6-1.7-3.9-1.1-2.4-2.2-4.8-3.4-7.2Z"/>
  <path class="st21" d="M2181.2,0c7,8.7,13.9,17.6,20.8,26.4,1.2,1.6,2.4,3.1,3.7,4.7,8.1,10.4,16,20.8,23.8,31.4,4.9,6.5,10,12.9,15,19.3,7.9,10,15.6,20,23.2,30.2,6.6,8.8,13.3,17.6,20,26.3,10.6,13.9,21.1,27.8,31.6,41.8,9.2,12.3,18.6,24.5,28.1,36.6,6.9,8.7,13.6,17.6,20.2,26.5,5.5,7.3,11,14.5,16.5,21.8,9.7,12.7,19.4,25.4,29.1,38.1,8.4,11,16.8,22.1,25.2,33.1,2,2.6,4,5.3,6.1,7.9,6,7.8,12,15.6,18,23.4,2.9,3.7,5.7,7.4,8.6,11.1q2,2.6,4.1,5.2c11.5,14.9,14.6,27.3,17,45.7,1.5,11.5,3.3,22.7,5.9,34,1.7,8.1,2.7,16.3,3.7,24.5,1.8,13.4,4.1,26.3,7.7,39.4,1.5,6.2,2.1,12.3,2.7,18.6.7,5.4,2.6,10.3,4.4,15.5.4,2.8.8,5.6,1.1,8.4q0,6.8,2.8,9.1c.6,4,1,8,1.4,12.1q.2,3.6,2.5,5.5c1.2,5.9,2.2,11.7,3.2,17.6,2.3,13.2,5.9,26,9.4,38.9,1.1,3.9,2.1,7.8,3.2,11.8,28.7,107.6,65.1,216.5,120.6,313.5q2.2,4.4,2.2,10.3h3.9q1.8,3.3,3.7,6.6c1.6,2.9,3.2,5.7,4.8,8.6.8,1.4,1.6,2.9,2.4,4.4.8,1.4,1.6,2.8,2.4,4.2.7,1.3,1.4,2.6,2.2,3.9,1.9,3.2,3.9,6.3,6,9.4-.4,11.5-6.3,21.2-11.2,31.3-15.2,32.1-26.3,65.7-37.5,99.3-.7,2.1-1.4,4.2-2.1,6.3-5.8,17.5-10.8,35.1-15.2,53-2.8,11.4-5.8,22.7-8.9,34-.6,2.2-1.2,4.4-1.8,6.7-2.6,9.5-5.1,19-7.9,28.4-9.9,34.5-16.9,69.5-22.6,105-1.3,8.4-2.8,16.8-4.4,25.2-16.3,87.8-19.4,176.9-21,266-8.7-7.3-17.1-14.9-25.2-23-1-1-2.1-2.1-3.1-3.1-2.2-2.2-4.3-4.3-6.5-6.5-3.3-3.3-6.5-6.5-9.8-9.8-9.9-9.9-19.6-19.7-28.6-30.4-4.6-5.4-9.5-10.5-14.4-15.7-8.8-9.5-17.2-19.3-25.3-29.4-4.2-5.1-8.6-10.1-13.1-15-8.5-9.4-16.4-19.1-24.3-29.1-1.5-1.9-3.1-3.9-4.6-5.9-16.3-20.6-32.2-41.4-48-62.4-1-1.4-2.1-2.8-3.2-4.2-43-57.5-81.7-119-117.7-181-1-1.7-2-3.4-3-5.1-14.4-24.8-28-49.9-41.1-75.4-2.5-4.7-5-9.5-7.5-14.2-31.8-59.3-59.3-120.8-85.3-182.9-.6-1.5-1.3-3.1-1.9-4.6-1.8-4.4-3.6-8.7-5.5-13.1-.5-1.3-1.1-2.6-1.6-3.9-3.3-8.1-5.9-16.1-8.2-24.5q-2.2-.3-4.5-.6c-16.9-2.5-33.5-5.7-50.2-9.1-2.8-.6-5.6-1.1-8.4-1.7-5.9-1.2-11.7-2.4-17.6-3.6-15.2-3.1-30.4-6.2-45.6-9.3q-2.2-.5-4.5-.9c-23.4-4.8-46.8-9.3-70.2-13.7-22.2-4.1-44.4-8.5-66.4-13.4-11-2.4-22-4.7-33.1-6.8-2.2-.4-4.5-.9-6.8-1.3-4.2-.8-8.5-1.6-12.7-2.4-24.7-4.7-36.7-20.1-52.5-38.5-1.6-1.8-3.1-3.6-4.7-5.5-14.8-17.1-28.6-34.9-42.1-53-1.1-1.4-2.1-2.8-3.2-4.3-24.3-32.7-45.9-66.9-65-102.9-.7-1.3-1.3-2.5-2-3.8-12.7-24-23-49-33.1-74.2-.8-2-1.7-4.1-2.5-6.1-6-15.1-10.5-30.1-14.2-45.9-.6-2.4-1.2-4.9-1.8-7.4-7.8-33.6-13.6-67.9-14.7-102.4,12.7,6.7,25,13.8,37,21.6,10.5,6.7,21.1,12.9,31.8,19.3,4.6,2.7,9.2,5.5,13.7,8.2q2.3,1.4,4.6,2.8c4.5,2.7,9.1,5.5,13.6,8.2q2.4,1.4,4.8,2.9c4.4,2.6,8.7,5.3,13.1,7.9,1.3.8,2.6,1.6,4,2.4,2.6,1.6,5.2,3.2,7.8,4.8,5.2,3.2,10,5.8,15.8,7.8v3.9c1.7.5,3.4,1,5.1,1.5,6.8,2.5,12.1,5.5,18.1,9.3,2.2,1.4,4.5,2.8,6.7,4.2,1.2.7,2.3,1.5,3.5,2.2,5.9,3.6,11.8,7.2,17.8,10.7,1.2.7,2.4,1.4,3.7,2.2,2.5,1.5,5,3,7.6,4.5,22,13,43.9,26.1,65.7,39.4,1.1.7,2.3,1.4,3.4,2.1,3.3,2,6.7,4.1,10,6.1,18.3,11.1,36.7,22.1,55,33.1,12.6,7.5,25.2,15.1,37.8,22.8,25,15.2,50.1,30.3,75.3,45.2,25,14.8,49.7,29.9,74.5,45-4.4-5.6-8.9-11.1-13.5-16.6-17.7-21.2-34.5-43-50.8-65.3-1.1-1.5-2.3-3.1-3.4-4.7-21.5-29.4-41.5-59.4-60.3-90.6-2.4-4-4.8-7.9-7.3-11.9-15.7-25.5-28.3-52.4-41.1-79.4-.8-1.6-1.5-3.3-2.3-5-.8-1.6-1.5-3.2-2.3-4.8-2-4.2-4.2-8.4-6.3-12.5-4-7.9-6.9-16-9.7-24.3-2.6-7.8-5.3-15.5-8.6-23-11.1-26.5-17.3-55.4-23.2-83.5q-.7-3.5-1.5-7c-2.7-13.3-4.4-26.3-5.2-39.8-.4-5.3-1.3-10.1-2.4-15.3-2.5-15.1-2.3-30.1-2.3-45.3q0-2.2,0-4.5c0-22.6,1-44.8,4.3-67.2,5.9,2.6,9.7,5.5,14.1,10.1,5.9,6.1,12,11.6,18.4,17.2,5.5,4.8,10.8,9.7,16.2,14.7,7.7,7.1,15.4,14,23.3,20.8,6.9,6,13.6,12.2,20.3,18.3,4.2,3.8,8.5,7.6,12.9,11.4,7.6,6.6,15,13.4,22.4,20.2,9.4,8.6,18.9,17.2,28.4,25.7,3.3,2.9,6.5,5.8,9.8,8.8,1.6,1.4,3.2,2.9,4.9,4.4q34.1,30.7,39,35.1c3.2,2.9,6.4,5.8,9.6,8.6,9,8,17.9,16.1,26.7,24.3,7.5,6.9,15.2,13.8,22.9,20.5,6.4,5.6,12.7,11.4,18.9,17.2,5.4,4.9,10.8,9.8,16.3,14.6,8.2,7.1,16,14.4,24,21.8,6.8,6.3,13.8,12.5,20.8,18.7,5.3,4.7,10.6,9.5,15.8,14.3,6.4,5.9,12.9,11.8,19.5,17.6,7.6,6.6,14.9,13.3,22.3,20.1,9.4,8.6,18.9,17.2,28.4,25.7,3.3,2.9,6.5,5.8,9.8,8.8q2.4,2.1,4.8,4.3c3.4,3.1,6.9,6.2,10.3,9.4,1.7,1.6,3.5,3.2,5.2,4.8q2.3,2.2,4.7,4.4,4.1,3.8,10,5.4c-.8-1.4-1.5-2.8-2.3-4.2-34-60.7-64.8-121.7-89.3-186.9-.7-1.8-1.4-3.6-2.1-5.4-15.8-41.7-26.9-83.3-35-127.2-.4-2-.8-4-1.1-6-4.6-24-8.2-47.5-8.6-72,0-2.1,0-4.3-.1-6.5-.5-30.6-.3-60.7,4-91,.2-1.4.4-2.7.6-4.1q9.5-66.4,18.9-75.8Z"/>
  <path class="st28" d="M2668.7,2246.5c4.9,2.4,9.8,4.8,14.6,7.2,1.4.7,2.7,1.3,4.1,2,6.9,3.4,13.5,7,19.9,11.1,9.7,6.2,20.1,11,30.6,15.9,3.9,1.8,7.8,3.7,11.6,5.5,1.8.9,3.7,1.7,5.6,2.6,4.6,2.2,9.2,4.5,13.7,6.8,5.9,3,11.9,5.5,18.2,7.8,7.8,2.9,15.5,6,23.2,9.4,25.8,11.5,52,20.6,78.8,29.3,4.9,1.6,9.8,3.3,14.7,5,146,51.6,303.7,62.8,457.3,61.3-3.8,12.4-9.8,22.9-16.3,34.1q-1.9,3.3-3.9,6.7c-29.8,51-64.2,99.5-101.8,145-4,4.8-7.9,9.7-11.8,14.6-7.8,9.6-16.1,18.7-24.6,27.8-4.1,4.4-8,8.9-12,13.4-7.1,8.2-14.5,16.2-22,24.1-1.3,1.4-2.7,2.9-4.1,4.3-16,16.9-32,33.8-49.8,48.8-3.6,3.1-6.9,6.4-10.3,9.8-5.8,5.9-11.9,11.4-18.2,16.8-4.6,4-9.1,8.1-13.6,12.2-8.4,7.6-17,14.7-25.8,21.8-6.5,5.3-12.8,10.7-19.1,16.2-12.4,10.7-25.1,20.8-38,30.8-3.2,2.5-6.5,5.1-9.7,7.6-29.8,23.6-59.9,46.6-91.1,68.3-5.4,3.8-10.7,7.5-16.1,11.3-5.6,3.9-11.1,7.8-16.7,11.8-3,2.1-5.9,4.2-8.9,6.3-24.9,17.6-50.2,34.7-75.6,51.6-5.3,3.5-10.7,7.1-16,10.6-33.2,22.2-66.6,44-100.1,65.8-23.5,15.2-46.9,30.6-70.3,46-9.5,6.3-19.1,12.5-28.6,18.8q-61.6,40.2-122.2,82.1c-5.5,3.9-11.1,7.9-16.6,11.8-5.5,3.9-11.1,7.8-16.6,11.7-3.5,2.5-7,4.9-10.5,7.4-40.1,28.2-78.5,58.9-116.5,89.9-3.1,2.5-6.2,5-9.3,7.5-11.9,9.5-23,19.6-34,30.2q-8.5,8.1-12.9,8.1c-2.5-5-2.2-8.6-2.3-14.2,0-2.2,0-4.3,0-6.6,0-2.4,0-4.7,0-7.2,0-2.5,0-4.9,0-7.4,0-8,0-16,0-24.1,0-1.4,0-2.7,0-4.1,0-42.2,1.1-83.7,6.3-125.6.6-4.8,1.1-9.7,1.6-14.5,3.5-29.7,8.1-59.2,13-88.7.3-1.7.6-3.4.8-5.2,2.9-18,6.2-35.7,10.8-53.3,2.7-10.2,4.8-20.5,6.8-30.9,3.8-19.6,8.1-39,12.6-58.5.4-1.8.8-3.5,1.2-5.3,16.1-69.1,35.3-137.3,56.8-204.8,1.6-5,3.1-9.9,4.7-14.9,12.9-40.7,26.5-81.2,41.1-121.4.7-1.9,1.4-3.7,2-5.7,1.9-5.3,3.8-10.6,5.8-15.8.6-1.6,1.1-3.1,1.7-4.7,4.7-12.6,9-21.4,20.3-29.1,14.4-10.1,27.9-21.2,41.1-32.8q5.7-4.8,9.6-4.8v-3.9c2.9-2.6,5.9-5,9-7.3,13-10.4,24.6-21.9,36.3-33.7,3.6-3.6,7.2-7.2,10.7-10.8,2.3-2.3,4.6-4.6,6.9-6.9,1.1-1.1,2.1-2.1,3.2-3.2,4.5-4.5,8.3-8.8,11.8-14.1h3.9c.2-1.1.3-2.3.5-3.4,1.9-5.7,4.8-8.4,9.3-12.2h3.9c.4-1,.8-2.1,1.3-3.2,4.2-7.5,10.4-13.3,16.3-19.4q5.5-5.8,9.8-12.6c2.8-5.6,7.2-9.2,11.6-13.5,4.1-4.7,8.1-9.6,12.1-14.5q1.7-2.1,3.4-4.2c8.5-10.5,16.4-21.4,24.2-32.4,4-5.6,8-11.2,12.2-16.7,1.2-1.6,2.4-3.2,3.7-4.9,2.4-3.2,4.7-6.3,7.1-9.5,7.4-9.9,13.6-20,19.3-30.9Z"/>
  <path class="st7" d="M2064.2,1618.6c6.4,5.9,10.4,11.8,14.5,19.4,6.8,12.3,14,24.2,21.5,36.1,7.5,12,14.9,24.1,22.2,36.3,9,15,18.6,29.6,28.6,43.9q1.2,1.7,2.5,3.5c2.3,3.3,4.6,6.5,6.9,9.8q3.3,5.1,3.3,9h3.9c2.3,3.3,4.5,6.7,6.6,10.1,4.5,7.5,9.3,14.3,14.9,21.1,2.1,2.6,4.2,5.3,6.2,7.9q1.5,1.9,3,3.8c2.6,3.9,3.4,7.1,4.4,11.6-1.9,1.4-3.8,2.8-5.7,4.3q-1.9,1.4-3.8,2.8c-2.8,2.1-5.6,4.2-8.4,6.3-7,5.2-14,10.5-20.9,15.8-47.5,36-97.2,69.9-148.2,100.9-4.9,3-9.8,6-14.8,9-21,12.8-42.1,25.5-63.3,37.9-4.2,2.5-8.4,5-12.7,7.5-1.4.9-2.9,1.7-4.4,2.6-2.7,1.6-5.4,3.2-8.1,4.8-21.7,12.8-44.1,24.3-66.6,35.7-18.4,9.4-36.8,18.9-55.1,28.6-20.3,10.8-41.1,20.6-61.9,30.3-1.2.6-2.5,1.2-3.8,1.8-70.7,32.9-142.5,64.1-216.1,89.9q-7.8,2.7-14.1,7.8c-3.6,1.3-7.2,2.4-10.9,3.4-10.2,3-20.2,6.3-30.2,9.8-2.8,1-5.6,1.9-8.3,2.9-1.4.5-2.8,1-4.3,1.5-27.7,9.7-55.4,18.4-83.7,25.9-6.6,1.8-13.2,3.8-19.8,5.8-44.6,13.5-89.7,24.4-135.3,34-1.8.4-3.6.8-5.4,1.1-22.9,4.8-45.8,9.3-68.8,13.1-1.3.2-2.6.4-3.9.7-40.7,6.8-81.1,12.8-122.3,15.5-2.2.1-4.4.3-6.6.5-1.9.1-3.9.3-5.9.4q-5.7.4-11.2,1.5c-7.3,1.2-14.6,1.7-22.1,2.1-1.5,0-3.1.2-4.6.2-17.4.9-34.8,1-52.2,1-1.7,0-3.4,0-5.2,0-112.6-.2-222-14.1-328.8-50.7-1.3-.4-2.6-.9-4-1.4-12.3-4.2-24.5-8.5-36.1-14.6-4.2-2.2-8.6-4.3-12.9-6.3q-65.1-30.4-88.3-48.3v-3.9c2.3-.9,4.6-1.7,6.9-2.6,14.7-5.7,29.3-11.4,43.6-18.1,8.2-3.7,16.6-6.9,25-10.2,11.9-4.7,23.6-9.6,35.1-15.1,11.3-5.4,22.6-9.9,34.4-14.1,8.9-3.3,17.3-7.1,25.7-11.5,7.7-3.7,15.7-6.6,23.6-9.5,8.7-3.4,17.2-7.4,25.7-11.4,9.8-4.5,19.7-8.6,29.6-12.6,14.4-5.9,28.7-12,43-18.4,6.8-3,13.7-5.9,20.7-8.6,11.3-4.5,22.4-9.3,33.5-14.2,21.7-9.5,43.5-18.8,65.4-27.9,5.1-2.1,10.1-4.2,15.2-6.3q1.9-.8,3.8-1.6c14.5-6.1,29-12.2,43.5-18.4,1.3-.6,2.7-1.1,4.1-1.7,5.4-2.3,10.9-4.6,16.3-6.9,9.1-3.9,18.1-7.7,27.2-11.5,23.8-10.1,47.7-20.2,71.5-30.4q72.2-30.8,108.4-45.9c12.7-5.3,25.4-10.6,38-16q2.1-.9,4.2-1.8c5.6-2.4,11.2-4.8,16.8-7.1,18.2-7.8,36.5-15.4,55-22.6q6.9-2.3,12.7-6.3c5.7-1,11.5-1.8,17.2-2.6,3.7-.5,7.5-1.1,11.2-1.6,2-.3,4-.6,6-.9,69.6-10,138.8-22.5,207.4-37.8,2.3-.5,4.7-1,7.1-1.6,17.2-3.9,34.3-7.9,51.4-12.1,1.5-.4,3-.7,4.5-1.1,80.2-19.6,159.4-42.8,237.4-69.7,3.6-1.3,7.2-2.5,10.9-3.7,87.6-30.1,177.6-64.4,258.1-110.7Z"/>
  <path class="st27" d="M3456.8,1535.5c1.3.3,2.6.5,4,.8,19.8,4.2,38.9,9.7,58.1,16,2.1.7,4.3,1.4,6.5,2.1,92.7,30.1,187.6,81.8,251,157.8,1.5,1.7,3.1,3.4,4.6,5.2,59,66.2,91.3,147.9,91.4,236.4,0,1.6,0,3.2,0,4.9,0,23.6-.9,46.4-6.3,69.5q-.5,1.9-.9,3.9c-2.6,11-5.7,21.8-9.3,32.5-.7,2.3-1.5,4.5-2.3,6.8-.7,2-1.4,4-2.1,6.1q-1.4,5.1,0,9.3c3.7,5,7.9,8.9,12.5,13,50.7,49,71.4,134.3,85,200.6.3,1.6.7,3.2,1,4.8,1.3,6.7,2,10.8-.1,17.4-.9-.9-1.8-1.8-2.7-2.8q-24.8-25.3-51.9-47.9c-1.3-1-2.7-2-4-3.1-44.1-33.6-92.2-61-144.2-80.8-2-.8-3.9-1.5-6-2.3-83.6-31.7-170.8-43.4-259.9-42.4-5.6,0-11.3,0-16.9.1-1.7,0-3.4,0-5.1,0-9.8,0-18.5-1-28-3.3-4.7-1.2-9.3-1.9-14.1-2.5q-2.6-.4-5.3-.7c-3.6-.5-7.1-.9-10.7-1.4-9.3-1.3-17.6-3-26.4-6.1-5.2-1-10.4-1.9-15.6-2.7-13.3-2.2-25.8-5.3-38.7-9.2-7.1-2-14.2-3.5-21.4-4.7-4.9-1.1-9.3-3-14-4.9-5.1-1.5-10.1-3.1-15.2-4.5-15-4.4-30-8.9-44.9-13.7-4.6-1.5-9.3-2.9-13.9-4.3-3.3-1-6.6-2.1-9.9-3.1-1.5-.5-3.1-.9-4.6-1.4-6.8-2.1-13.5-4.4-20-7.2-5.8-2.5-11.6-4.6-17.7-6.5-9.7-3.2-18.7-7-27.9-11.4-6.4-2.8-12.9-5.1-19.5-7.4-9.8-3.4-18.8-7.3-28-12.2-8-3.9-16.3-6.8-24.6-9.8-5.6-2.3-10.4-5.1-15.6-8.2-2.7-1.1-5.5-2.2-8.3-3.2-10.9-4.2-21-9.7-31.2-15.2-9.8-5.3-19.7-10.1-29.8-14.7-14.9-6.9-29-14.6-43.2-22.8-4.9-2.8-9.8-5.5-14.7-8.3-51.9-28.8-101.3-61.2-149.6-95.7,2.9-9.4,8.3-15.5,14.7-22.7,2.1-2.4,4.3-4.9,6.4-7.3q1.6-1.8,3.2-3.6c4-4.7,7.9-9.5,11.7-14.3,7.6-9.4,15.8-18.3,24.1-27.2q11.4-12.1,19.8-26.3h3.9c4.2-3.9,8.2-7.8,12.2-11.9,1.2-1.2,2.4-2.4,3.7-3.7,3.9-3.9,7.8-7.9,11.7-11.8q30.9-31.4,44.6-42.8c2.1-1.8,4.2-3.7,6.3-5.6,17.4-15.2,35.5-29.5,54.1-43.2,1.5-1.1,3-2.2,4.5-3.3,81.5-59.7,173.2-100.6,274.3-109.8,1.9-.2,3.7-.4,5.6-.6,63.6-5.7,127.2-1.9,189.6,11Z"/>
  <path class="st18" d="M2251.4,3012.9c2.7,8.8.3,15.8-2,24.5-12.3,51.3-19.2,104.1-25.1,156.5q-.3,2.7-.6,5.4c-.6,5.1-1.1,10.3-1.7,15.5q-.2,2.2-.5,4.5c-2.5,23.6-3.6,47.1-3.5,70.9,0,2.7,0,5.4,0,8.1,0,7,0,14.1,0,21.1,0,7.2,0,14.5,0,21.7,0,14.1,0,28.2,0,42.3,3.4-2.8,6.9-5.6,10.3-8.4q2.9-2.3,5.8-4.7c6.5-5.4,12.6-11.1,18.7-16.9,12-11.4,24.7-21.6,37.9-31.7,4.7-3.6,9.2-7.3,13.8-11,18.9-15.3,38.4-29.8,57.9-44.3,1.3-1,2.7-2,4.1-3,17.8-13.2,35.7-26,53.8-38.7,4.8-3.3,9.5-6.7,14.2-10,17.8-12.6,35.8-24.9,54-36.9,5.5-3.6,10.9-7.3,16.3-10.9,24.6-16.5,49.3-32.7,74.3-48.6,1.9-1.2,3.8-2.4,5.8-3.7,1.7-1.1,3.3-2.1,5.1-3.2q4.6-2.9,8.7-6.4c1.2-.8,2.4-1.6,3.7-2.4q5.9,2,8.7,6.6c1,2.1,2,4.1,3.1,6.3.6,1.1,1.1,2.3,1.7,3.5,1.9,3.8,3.7,7.7,5.5,11.5.6,1.3,1.3,2.7,1.9,4,61.2,128,115.3,285.2,84.4,428.4q-.6,2.7-1.1,5.5c-6.7,31-16.9,61.2-34,88.2-4.7-5.9-8.2-12-11.5-18.8-1-2.1-2.1-4.2-3.1-6.3-1.1-2.2-2.1-4.3-3.2-6.6-1.1-2.2-2.2-4.4-3.3-6.7-2.7-5.4-5.4-10.8-8-16.3-.2,1.9-.5,3.9-.7,5.9-4.8,38-9.6,75.8-18.8,113.1q-.6,2.6-1.3,5.2c-14.6,59-43.8,122.1-86.5,166.4h-3.9c-.6-2.4-1.2-4.9-1.8-7.4-13.3-53.7-26.9-107.3-40.7-160.8-.4-1.4-.7-2.7-1.1-4.1-4.3-16.7-8.6-33.3-13-50-.3,1.2-.6,2.4-1,3.6-1.5,5.5-3,11-4.5,16.5-.5,1.9-1,3.7-1.5,5.7-7,25.6-14.1,51-24.2,75.6-1.4,3.5-2.8,7-4.2,10.6-21.9,54.3-49,104.9-87.5,149.3-1.6,1.8-3.1,3.6-4.7,5.5-4.2,4.7-8.5,9.4-12.8,14q-2.4,2.6-4.9,5.2c-15,15.5-32,32.3-51.7,41.6-1.5-34.6-2.5-69.1-3.3-103.7-.2-6.8-.3-13.6-.5-20.4-.3-12.8-.6-25.6-.9-38.4-.3-14.6-.7-29.2-1-43.9-.7-30-1.4-60-2.1-90-1.2,2.1-2.4,4.3-3.6,6.5-1.6,2.8-3.2,5.7-4.8,8.5-.8,1.4-1.6,2.8-2.4,4.3-5.8,10.3-11.8,20.3-18.5,30-1,1.5-2,2.9-3,4.4-48,70.7-108.2,132.2-184.8,171.3-1.3.7-2.5,1.3-3.8,2-8.8,4.4-17.2,6.9-26.8,9,1-15.5,3.5-30.1,7.1-45.2q.8-3.3,1.6-6.7c1.7-7.2,3.4-14.3,5.1-21.5,1.2-4.9,2.3-9.9,3.5-14.8,6.8-28.9,13.7-57.7,20.7-86.5,3.7-15.3,7.3-30.6,10.8-45.9,2.7-11.8,5.4-23.7,8.1-35.5q11.3-48.3,21.1-96.9c-.8.8-1.6,1.5-2.5,2.3-36.6,34.8-74.3,66.4-118.4,91.3-1.3.7-2.5,1.4-3.8,2.2-40.5,23.1-89.3,43.5-136.6,42.7,3.1-11.5,9-20.9,15.1-31,2.3-3.9,4.6-7.7,6.9-11.6,1.2-2,2.4-4,3.6-6,5.8-9.7,11.5-19.4,17.1-29.2,2.3-3.9,4.6-7.9,6.9-11.8,1.1-2,2.3-3.9,3.4-5.9,5.7-9.8,11.4-19.5,17.1-29.3,2.3-3.9,4.6-7.8,6.8-11.7,31.9-54.6,63.7-109.2,95.6-163.8q1.7-2.9,3.4-5.8c2.3-3.9,4.6-7.8,6.8-11.7,5.6-9.6,11.2-19.3,16.8-28.9,9.6-16.4,19.1-32.8,28.7-49.2,14.9-25.3,29.6-50.6,44.3-76.1,8-13.9,16-27.7,24.2-41.5,12.9-21.9,25.7-43.8,38.6-65.7,1.2-2.1,2.5-4.3,3.8-6.5,12.8-21.9,25.6-43.9,38.2-66,11.1-19.5,22.6-38.9,34.1-58.2Z"/>
  <path class="st4" d="M1522,434.9c12.7,6.7,25,13.8,37,21.6,10.5,6.7,21.1,12.9,31.8,19.3,4.6,2.7,9.2,5.5,13.7,8.2,1.5.9,3.1,1.8,4.6,2.8,4.5,2.7,9.1,5.5,13.6,8.2,1.6.9,3.2,1.9,4.8,2.9,4.4,2.6,8.7,5.3,13.1,7.9q2,1.2,4,2.4c2.6,1.6,5.2,3.2,7.8,4.8,5.2,3.2,10,5.8,15.8,7.8v3.9c1.7.5,3.4,1,5.1,1.5,6.8,2.5,12.1,5.5,18.1,9.3,2.2,1.4,4.5,2.8,6.7,4.2,1.2.7,2.3,1.5,3.5,2.2,5.9,3.7,11.8,7.2,17.8,10.7,1.2.7,2.4,1.4,3.7,2.2,2.5,1.5,5,3,7.6,4.5,22,13,43.9,26.1,65.7,39.4,1.1.7,2.3,1.4,3.4,2.1,3.3,2,6.7,4.1,10,6.1,18.3,11.1,36.7,22.1,55,33.1,12.6,7.5,25.2,15.1,37.8,22.8,22.9,13.9,45.8,27.8,68.8,41.4,7.6,4.5,15.3,9,22.9,13.6,3.6,2.1,7.2,4.3,10.8,6.4,6.2,3.7,12.4,7.4,18.6,11.1,2.3,1.4,4.7,2.8,7,4.2,21.6,12.7,45.9,29,56.7,52.6h3.9q2.6,2.7,5.7,6.5c6.8,8,14,15.3,21.5,22.6,5.2,5.2,10.2,10.4,15,16,11,12.8,23,24.3,35.8,35.2,4.4,3.9,8.6,8.1,12.7,12.3,6.5,6.5,13.1,12.7,20,18.6,4.3,3.8,8.5,7.6,12.7,11.5,9.9,9.2,20.1,18,30.7,26.5,7,5.7,13.8,11.6,20.6,17.6,11.1,9.7,22.4,19.1,34,28.2,1.9,1.5,3.8,3,5.8,4.6,39.2,31.1,79.1,61.5,120.9,89,2.2,1.5,4.4,3,6.6,4.5q92.2,62.5,192.3,110.6c-1.1,10.3-2.9,19.9-5.6,30-.4,1.3-.7,2.6-1.1,4-.8,2.8-1.5,5.6-2.3,8.3-1.2,4.3-2.4,8.7-3.6,13.1-3.2,11.7-6.5,23.4-9.8,35.1-9.8,34.2-16.7,68.9-22.3,104-1.3,8.4-2.8,16.8-4.4,25.2-16.3,87.8-19.4,176.9-21,266-8.7-7.3-17.1-14.9-25.2-23-1-1-2.1-2.1-3.1-3.1-2.2-2.2-4.3-4.3-6.5-6.5-3.3-3.3-6.5-6.5-9.8-9.8-9.9-9.9-19.6-19.7-28.6-30.4-4.6-5.4-9.5-10.5-14.4-15.7-8.8-9.5-17.2-19.3-25.3-29.4-4.2-5.1-8.6-10.1-13.1-15-8.5-9.4-16.4-19.1-24.3-29.1-1.5-1.9-3.1-3.9-4.6-5.9-16.3-20.6-32.2-41.4-48-62.4-1-1.4-2.1-2.8-3.2-4.2-43-57.5-81.7-119-117.7-181-1-1.7-2-3.4-3-5.1-14.4-24.8-28-49.9-41.1-75.4-2.5-4.7-5-9.5-7.5-14.2-31.8-59.3-59.3-120.8-85.3-182.9-.6-1.5-1.3-3.1-1.9-4.6-1.8-4.4-3.6-8.7-5.5-13.1-.5-1.3-1.1-2.6-1.6-3.9-3.3-8.1-5.9-16.1-8.2-24.5q-2.2-.3-4.5-.6c-16.9-2.5-33.5-5.7-50.2-9.1-2.8-.6-5.6-1.1-8.4-1.7-5.9-1.2-11.7-2.4-17.6-3.6-15.2-3.1-30.4-6.2-45.6-9.3-1.5-.3-3-.6-4.5-.9-23.4-4.8-46.8-9.3-70.2-13.7-22.2-4.1-44.4-8.5-66.4-13.4-11-2.4-22-4.7-33.1-6.8-2.2-.4-4.5-.9-6.8-1.3-4.2-.8-8.5-1.6-12.7-2.4-24.7-4.7-36.7-20.1-52.5-38.5-1.6-1.8-3.1-3.6-4.7-5.5-14.8-17.1-28.6-34.9-42.1-53-1.1-1.4-2.1-2.8-3.2-4.3-24.3-32.7-45.9-66.9-65-102.9-.7-1.3-1.3-2.5-2-3.8-12.7-24-23-49-33.1-74.2-.8-2-1.7-4.1-2.5-6.1-6-15.1-10.5-30.1-14.2-45.9-.6-2.4-1.2-4.9-1.8-7.4-7.8-33.6-13.6-67.9-14.7-102.4Z"/>
  <path class="st23" d="M2009.6,1517.2c.6,1.2,1.3,2.5,1.9,3.7,13.3,26.1,27.1,51.8,42.2,77,1.1,1.8,2.2,3.7,3.3,5.6,1,1.6,1.9,3.2,2.9,4.9,2.2,4.1,3.4,7.7,4.3,12.2-63.7,34.3-129.9,62.3-197.3,88.3-3.3,1.3-6.5,2.5-9.8,3.8-13.5,5.2-27,10.2-40.6,15.1-1.2.4-2.4.9-3.6,1.3-92.5,33.5-187.5,59.5-283.1,82.5-1.7.4-3.5.8-5.3,1.3-82.4,19.9-165.9,34.1-249.7,46.3-1.4.2-2.8.4-4.3.6-3.8.5-7.5,1-11.3,1.5q-6.2.8-11.1,3.1c-6.5,2.5-12.9,2.6-19.8,2.9-12.2.6-24.4,1.4-36.5,2.7q-2.3.2-4.7.5c-3.2.3-6.4.7-9.6,1-112.3,11.8-227.2,16-339.9,6.8-4.2-.3-8.5-.7-12.8-1-31-2.3-61.7-4.9-92.3-10.3-6-1-12.1-1.8-18.1-2.6-20.1-2.7-40.1-6.2-60-9.9-1.4-.3-2.7-.5-4.2-.8-4-.7-7.9-1.5-11.9-2.2-2.3-.4-4.6-.9-6.9-1.3-6.2-1.4-12.1-3.3-18.1-5.3-4.7-1-9.5-1.9-14.3-2.8-9.6-1.8-18.7-4-27.9-7.3-5.7-1.9-11.6-3.4-17.4-4.8-27.4-7.2-54.9-16-80.8-27.4-4.7-2-9.4-3.9-14.2-5.7-15-5.7-29.5-11.3-43.3-19.5-4.7-2.6-9.5-4.7-14.5-6.7-8.3-3.7-16.4-8-24.5-12.2-1.8-.9-3.6-1.8-5.4-2.8-10.2-5.3-19.5-11.1-28.7-17.9-3.2-1.8-6.4-3.6-9.6-5.4-36-21.2-69-48.2-99.6-76.5-2.1-1.9-4.1-3.7-6.2-5.6-2.1-1.9-4.3-3.8-6.4-5.8-1-.9-2-1.8-3-2.7-5.2-4.7-9.7-9.4-13.7-15.2q8.7-1,17.6-2c-.6,1.9-1.3,3.9-2,5.9,1.7,0,3.4.2,5.2.2,22.2,1.2,44.1,3.6,66.2,6.2,128.8,14.8,258.3,23.5,387.8,29,1.7,0,3.3.1,5.1.2,10.3.4,20.6.8,30.9,1.2,4.3.1,8.6.3,12.9.5,57,2.1,114.1,2,171.2,1.9,9.3,0,18.6,0,27.9,0,84.2,0,168.5-.3,252.6-4.6,2.4-.1,4.8-.2,7.2-.4,216.7-11.2,432.7-39.6,805.1-143.3,1.6-.5,3.1-1.1,4.7-1.6,1.4-.5,2.7-.9,4.1-1.4q3.6-1,9.5-1Z"/>
  <path class="st8" d="M476.8,624c11.9,1.2,23.4,2.9,35.1,5.4,14.5,3,28.9,5.9,43.4,8.8,4.3.9,8.7,1.7,13,2.6,2.3.5,4.5.9,6.8,1.4,11.9,2.4,23.7,4.7,35.6,7.1,5.1,1,10.2,2,15.3,3.1,2.6.5,5.3,1.1,7.9,1.6q2,.4,4,.8c1.4.3,2.7.5,4.1.8,1.4.3,2.8.6,4.2.8,2.8.6,5.7,1.1,8.5,1.7,1.4.3,2.9.6,4.3.9,2.9.6,5.8,1.2,8.7,1.7,1.5.3,2.9.6,4.4.9,3,.6,5.9,1.2,8.9,1.8q2.2.4,4.5.9c9,1.8,18,3.6,27,5.4,1.5.3,3,.6,4.5.9,3,.6,6,1.2,9,1.8,3,.6,5.9,1.2,8.9,1.8,7.4,1.5,14.7,2.9,22.1,4.4,12.9,2.6,25.7,5.1,38.6,7.7,6.8,1.4,13.6,2.7,20.4,4.1,1.3.3,2.6.5,3.9.8,15.9,3.2,31.9,6.4,47.8,9.6,4.6.9,9.3,1.9,13.9,2.8,3.9.8,7.7,1.6,11.6,2.3,12,2.4,24.1,4.7,36.2,6.8,17.6,3.1,35.1,6.6,52.6,10.2,5.6,1.2,11.3,2.3,16.9,3.4,11.9,2.4,23.9,4.9,35.8,7.3,13.9,2.8,27.9,5.7,41.8,8.5,5.5,1.1,11.1,2.3,16.6,3.4,3.4.7,6.8,1.4,10.2,2.1q2.3.5,4.6.9c6.7,1.4,13.2,2.5,20,3.3,7.1,1.3,8.6,3.5,12.8,9.2,5.3,6.3,11.9,11.1,18.3,16.2,6.6,5.3,13,10.9,19.4,16.4,11.2,9.7,22.7,18.9,34.4,28,5.9,4.6,11.8,9.3,17.7,14.1,15,12.1,30.3,23.8,45.8,35.2,3.9,2.9,7.7,5.8,11.6,8.7,36.9,27.9,74.7,54.5,113.2,80,5,3.3,9.9,6.6,14.9,9.9q1.9,1.3,3.8,2.5c6.7,4.5,13.4,9.1,20,13.8,14.6,10.3,30,19.2,45.2,28.4,2,1.2,4.1,2.4,6.1,3.7,47.1,28.4,94.6,56.1,144,80.2,3.5,1.8,7,3.5,10.5,5.3,35.4,17.9,71.5,34.7,108.3,49.6,2.7,1.1,5.3,2.2,7.9,3.3,25.4,10.5,51.5,18.9,77.6,27.5,1.5.5,3,1,4.6,1.5,2.9.9,5.7,1.9,8.6,2.8,6.4,2.1,12.6,4.3,18.5,7.6v2c-32.1,2.2-64.2,2.4-96.4,2.4-1.4,0-2.8,0-4.2,0-186.9,0-372.4-26-553.6-71.4-5.1-1.3-10.2-2.5-15.3-3.7-15.9-3.9-31.5-8-46.9-13.6-31.5-11.1-61.8-11.7-94.8-11.2v-2q19.3-1,39-2c-4.5-1.5-9-3-13.7-4.5-98.7-32.9-194.7-73.6-284.7-126.1-1.7-1-3.4-2-5.1-3-58.7-34.1-114.1-74.4-163.5-121-3-2.8-6-5.5-9-8.2-21.4-19.2-40.3-40.4-58.3-62.9-1-1.2-1.9-2.4-2.9-3.6-21.6-27.2-40.8-55.9-58.2-86.1-.7-1.3-1.5-2.5-2.2-3.9-3.7-6.6-4.9-9.9-4.9-17.6h-3.9c-1-2.2-1.9-4.4-2.9-6.7-1.3-2.9-2.5-5.8-3.8-8.7-.6-1.5-1.3-2.9-1.9-4.4-.6-1.4-1.2-2.8-1.8-4.2-.6-1.3-1.1-2.6-1.7-3.9-1.1-2.4-2.2-4.8-3.4-7.2Z"/>
  <path class="st4" d="M1964.7,1421.6q3.2,4.5,5.9,10.5,1.6,3.3,3.1,6.7c1.1,2.4,2.2,4.8,3.2,7.2,1.1,2.4,2.2,4.8,3.4,7.2,2.2,4.8,4.4,9.6,6.6,14.4,2.6,5.8,5.4,11.5,8.1,17.2q1.1,2.3,2.2,4.6c1.3,2.7,2.6,5.4,3.9,8.1,3.1,6.6,5.1,12.6,6.4,19.7-173.1,60.5-350.2,99.3-828.7,149.7q-3.3.2-6.7.3c-84.8,4.3-169.8,4.4-254.7,4.4-4,0-8,0-12,0-76.5,0-152.9-.2-229.3-4-6.7-.3-13.5-.6-20.2-.9-146-6.7-291.7-18.2-436.7-36.4.6-1.9,1.3-3.9,2-5.9,1.5-.3,3.1-.6,4.6-.8,14.5-2.7,29-5.3,43.5-8,7.5-1.4,14.9-2.7,22.4-4.1,7.2-1.3,14.4-2.7,21.7-4,2.7-.5,5.5-1,8.2-1.5,16-2.9,31.9-6.1,47.8-9.5,6.7-1.4,13.5-2.7,20.3-3.8,2.4-.4,4.8-.8,7.3-1.2,2.4-.4,4.9-.8,7.4-1.2,24.9-4.1,49.7-8.3,74.3-13.7,27.1-5.9,54.4-10.4,81.7-14.8,14.4-2.3,28.5-5.1,42.7-8.2,8-1.7,16.1-3,24.2-4.1,14.2-2.1,28.1-4.9,42-8.2,8.7-2,17.2-3.3,26-4.1q3.8-.3,7.5-2.4c2.8-.5,5.6-.9,8.4-1.3,1.7-.2,3.4-.5,5.1-.7,3.5-.5,7.1-1,10.6-1.5,9.8-1.4,19-3.5,28.5-6.2,6.2-1.1,12.5-2,18.8-2.8,13.6-1.9,26.9-4.4,40.2-7.7,6.2-1.4,12.3-2.1,18.7-2.6q4.6-.5,10.2-2.4c8.5-2.5,17.2-4,26-5.5,1.8-.3,3.5-.6,5.3-.9,5.7-1,11.4-2,17.1-3,7.9-1.4,15.9-2.8,23.8-4.2q3-.5,6-1.1c12.1-2.1,24.3-4.4,36.4-6.7,2.9-.5,5.8-1.1,8.7-1.6,5.2-1,10.5-2,15.7-3.1,33.2-6.3,65.3-2.1,98.6,1.3,8.9.9,17.8,1.7,26.7,2.6,2.2.2,4.4.4,6.6.6,14.6,1.4,29.3,2.8,44,4q2.6.2,5.2.5c33.7,2.8,67.3,3.6,101.2,3.6q3.3,0,6.7,0c11.7,0,23.5,0,35.2,0,9.4,0,18.9,0,28.3,0,193,.9,388-17,594.3-70,1.7-.5,3.5-.9,5.3-1.4,3.1-.9,6.2-1.7,9.4-2.6,7.7-2.2,13.2-3.4,20.9-.6Z"/>
  <path class="st24" d="M2064.2,1618.6c6.4,5.9,10.4,11.8,14.5,19.4,5,9,10.1,17.8,15.6,26.5q1.7,2.8,3.5,5.6c2.3,3.7,4.7,7.4,7.1,11.1,1.1,1.7,2.1,3.4,3.2,5.1q1.5,2.3,2.9,4.6c.6,1.2,1.2,2.5,1.9,3.8q-2,3.9-5.9,5.4c-8.2,3.3-15.2,8.2-22.6,13-17.2,11-34.8,21.4-52.6,31.6-4.7,2.7-9.3,5.4-13.9,8.1-27.4,15.9-55.3,30.7-83.3,45.5-7.2,3.8-14.3,7.6-21.5,11.4-21.7,11.6-43.7,22.3-65.9,32.7-4.8,2.3-9.6,4.6-14.4,6.9-66.6,32-134.7,60.3-203.5,87.3-1.3.5-2.5,1-3.9,1.5-68.1,26.7-137.3,50.5-206.9,73.3-3.6,1.2-7.1,2.3-10.7,3.5-29.8,9.8-59.9,18.7-90.1,27.1-9.4,2.6-18.8,5.3-28.2,8-1.5.4-2.9.8-4.4,1.3-7.3,2.1-14.7,4.2-22,6.4-20.7,6.2-41.4,11.8-62.3,17.1-1.7.4-3.5.9-5.3,1.3-14,3.6-28.1,7.1-42.1,10.6-2.2.6-4.5,1.1-6.8,1.7-157.4,39.2-316.4,71.8-476.8,95.8-2.3.3-4.5.7-6.9,1-53.8,8-107.7,15.2-161.8,21.4q-3.3.4-6.7.8c-6.2.7-12.5,1.4-18.7,2.1q-2.7.3-5.5.6c-10.9,1.2-21.5,1.6-32.5,1.4q2-5.9,5.7-7.8c1.6-.6,3.2-1.1,4.8-1.7,7-2.6,13.7-5.4,20.5-8.5,10.2-4.7,20.5-8.8,31-12.9,11.9-4.7,23.6-9.6,35.1-15.1,11.3-5.4,22.6-9.9,34.4-14.1,8.9-3.3,17.3-7.1,25.7-11.5,7.7-3.7,15.7-6.6,23.6-9.5,8.7-3.4,17.2-7.4,25.7-11.4,9.8-4.5,19.7-8.6,29.6-12.6,14.4-5.9,28.7-12,43-18.4,6.8-3,13.7-5.9,20.7-8.6,11.3-4.5,22.4-9.3,33.5-14.2,21.7-9.5,43.5-18.8,65.4-27.9,5.1-2.1,10.1-4.2,15.2-6.3q1.9-.8,3.8-1.6c14.5-6.1,29-12.2,43.5-18.4,1.3-.6,2.7-1.1,4.1-1.7,5.4-2.3,10.9-4.6,16.3-6.9,9.1-3.9,18.1-7.7,27.2-11.5,23.8-10.1,47.7-20.2,71.5-30.4q72.2-30.8,108.4-45.9c12.7-5.3,25.4-10.6,38-16q2.1-.9,4.2-1.8c5.6-2.4,11.2-4.8,16.8-7.1,18.2-7.8,36.5-15.4,55-22.6q6.9-2.3,12.7-6.3c5.7-1,11.5-1.8,17.2-2.6,3.7-.5,7.5-1.1,11.2-1.6,2-.3,4-.6,6-.9,69.6-10,138.8-22.5,207.4-37.8,2.3-.5,4.7-1,7.1-1.6,17.2-3.9,34.3-7.9,51.4-12.1,1.5-.4,3-.7,4.5-1.1,80.2-19.6,159.4-42.8,237.4-69.7,3.6-1.3,7.2-2.5,10.9-3.7,87.6-30.1,177.6-64.4,258.1-110.7Z"/>
  <path class="st9" d="M256.4,1090.1c55.9-.2,111.8.3,167.7.7,4.2,0,8.4,0,12.5,0,106.6.8,213.1,1.9,319.6,3,5.6,0,11.3.1,16.9.2,74.6.8,149.2,1.7,223.8,2.7,4,0,7.9.1,11.9.2,17,.2,34,.5,51,.9,2.8,0,5.5.1,8.3.2,7.1.1,14.2.3,21.3.5,2.7,0,5.4.1,8.1.2,20.7.4,37.5,3.8,56.8,11.1,180.3,63.6,391.8,86.4,620.1,88.1q2,0,4.1,0c32.2,0,64.3-.5,96.5-2.4q15.6,37.8,15.6,50.7c-23.5,6.7-47,12.8-70.8,18.2q-2.5.6-5,1.1c-106.5,23.8-214.9,38.6-323.7,46.4q-2.5.2-5,.4c-11.4.8-22.9,1.5-34.3,2.2-1.7,0-3.3.2-5,.3-39.7,2.2-79.4,2.1-119.2,2.1-1.8,0-3.6,0-5.4,0-59.1,0-117.9-1.2-176.8-5.9-5.6-.4-11.3-.9-16.9-1.3-77.1-5.9-154.4-14.6-230.5-28.4-1.9-.3-3.8-.7-5.8-1-148.9-26.9-296.2-61-439.4-110.2-6.4-2.2-12.7-4.3-19.1-6.4-1.3-.4-2.6-.9-4-1.3-3.6-1.2-7.1-2.3-10.7-3.5-6.9-2.4-13.6-5.3-20.3-8.2-2.8-1-5.6-2-8.5-2.9-25.7-8.5-50.8-18.4-75.9-28.7-1.6-.7-3.3-1.4-5-2.1-17.8-7.3-35.6-14.8-53-22.9v-3.9Z"/>
  <path class="st2" d="M2202.6,1827.3c8.6,8.3,16.3,17.2,23.9,26.4,1.2,1.5,2.5,2.9,3.8,4.5,1.2,1.4,2.4,2.9,3.6,4.3,1.1,1.3,2.1,2.6,3.2,3.9,2.7,4,3.9,6.8,4.5,11.6q-2.6,4.4-5.9,7.8h-3.9v3.9c-3.2,2.6-6.5,5.2-9.8,7.8-.6,1.3-1.3,2.6-2,3.9h-3.9v3.9q-2.6,2.5-6.3,5.5c-7.3,6.2-14.2,12.8-21,19.6q-1.5,1.6-3.1,3.1c-3.2,3.2-6.4,6.5-9.6,9.7q-24.4,24.7-36.3,34.9c-7,6-13.6,12.4-20.2,18.8-10.5,10-21.2,19.8-32.2,29.3-2.3,2-4.7,4.1-7,6.1-22.7,19.7-45.7,39.2-69,58.2-2.5,2-4.9,4-7.4,6-15,12.2-30,24.3-45.4,35.9-4.4,3.4-8.8,6.7-13.2,10.1-21.9,16.8-44.1,33.3-66.6,49.3-1.5,1.1-3,2.1-4.5,3.2-4.4,3.2-8.9,6.3-13.3,9.5q-2,1.4-4,2.8c-7.8,5.5-15.7,10.6-23.9,15.5q-3.4,2-5,6c-2.6,1.6-5.2,3-7.9,4.4-6.2,3.3-11.9,6.9-17.4,11.2-5.2,4-10.3,7.4-16.1,10.5-9.2,4.9-17.7,10.6-26.3,16.5-16.2,10.9-32.5,21.4-49.8,30.6-5.6,3.1-10.9,6.4-16.3,9.7-37.4,23.2-76.6,43.4-115.8,63.4-2.3,1.2-4.7,2.4-7,3.6-138,70.5-283.4,127.6-582,195.3,4-7.5,7.7-11.7,14.7-16.3q2.6-1.8,5.3-3.5c1.8-1.2,3.5-2.3,5.3-3.5,3-2.1,6-4.2,9-6.3,7-4.9,14-9.7,21-14.5q37.5-25.7,74.4-52.4c12.4-9.2,25.2-18,38-26.7,9.2-6.2,18.3-12.6,27.3-19,10.4-7.5,21-14.8,31.7-22.1,13.8-9.4,27.3-19,40.8-28.8,15.6-11.4,31.5-22.4,47.4-33.5,8.3-5.8,16.6-11.6,24.8-17.4,1.6-1.1,3.2-2.3,4.9-3.4,10.3-7.2,20.5-14.4,30.8-21.7,16.8-11.9,33.7-23.7,50.6-35.5,5-3.5,10-7,15.1-10.5,9.6-6.8,19.3-13.5,29-20.3,1.5-1,3-2.1,4.5-3.2,4.2-2.9,8.4-5.9,12.7-8.8,1.2-.9,2.4-1.7,3.7-2.6,15.7-10.8,31.3-17.8,49.2-24.4,5.1-1.9,10.2-3.8,15.3-5.7,1.3-.5,2.6-1,4-1.5,66.4-25.1,131.3-54,195.4-84.6,3.8-1.8,7.6-3.6,11.4-5.4,26.1-12.4,52-25.1,77.5-38.8,7.3-3.9,14.6-7.6,21.9-11.4,17.2-8.9,34.2-17.9,50.9-27.7,5-2.9,10.1-5.8,15.1-8.7,41.1-23.5,82.1-47.5,121.6-73.7,1.8-1.2,3.7-2.4,5.6-3.7,38.6-25.5,76.9-51.4,113.8-79.5,5.5-4.2,11-8.3,16.5-12.4,5.3-4,10.5-7.9,15.6-12.2q4.5-3.4,8.4-3.4v-3.9Z"/>
  <path class="st6" d="M2181.2,0c7,8.7,13.9,17.6,20.8,26.4,1.2,1.6,2.4,3.1,3.7,4.7,8.1,10.4,16,20.8,23.8,31.4,4.9,6.5,10,12.9,15,19.3,7.9,10,15.6,20,23.2,30.2,6.6,8.8,13.3,17.6,20,26.3,10.6,13.9,21.1,27.8,31.6,41.8,9.2,12.3,18.6,24.5,28.1,36.6,6.9,8.7,13.6,17.6,20.2,26.5,5.5,7.3,11,14.5,16.5,21.8,9.7,12.7,19.4,25.4,29.1,38.1,8.4,11,16.8,22.1,25.2,33.1,2,2.6,4,5.3,6.1,7.9,6,7.8,12,15.6,18,23.4,2.9,3.7,5.7,7.4,8.6,11.1,1.4,1.7,2.7,3.5,4.1,5.2,11.5,14.9,14.6,27.3,17,45.7,1.5,11.5,3.3,22.7,5.9,34,1.7,8.1,2.7,16.3,3.7,24.5,1.8,13.4,4.1,26.3,7.7,39.4,1.5,6.2,2.1,12.3,2.7,18.6.7,5.4,2.6,10.3,4.4,15.5.4,2.8.8,5.6,1.1,8.4q0,6.8,2.8,9.1c.6,4,1,8,1.4,12.1q.2,3.6,2.5,5.5c1.2,5.9,2.2,11.7,3.2,17.6,2.3,13.2,5.9,26,9.4,38.9,1.1,3.9,2.1,7.8,3.2,11.8,28.7,107.6,65.1,216.5,120.6,313.5q2.2,4.4,2.2,10.3h3.9c3,5.1,5.9,10.2,8.9,15.4q1.3,2.2,2.6,4.4c.8,1.4,1.6,2.8,2.4,4.2.7,1.3,1.5,2.6,2.3,3.9.5,1.1.9,2.2,1.4,3.3-.6,1.3-1.3,2.6-2,3.9-1.6-1.3-3.2-2.7-4.8-4.1-2.2-1.9-4.4-3.7-6.5-5.6-1.2-1-2.3-2-3.5-3-7-5.9-14.1-11.8-21.2-17.5-9.5-7.7-18.5-15.9-27.5-24.4-4.3-4-8.5-7.9-13.2-11.3-1-.8-2.1-1.6-3.2-2.5v-3.9c-1.1-.5-2.2-1-3.4-1.5-5.1-2.8-8.5-6-12.6-10.1-1.6-1.6-3.2-3.2-4.8-4.8-1.7-1.7-3.4-3.4-5.2-5.2-1.8-1.8-3.5-3.6-5.4-5.4-3.8-3.8-7.5-7.5-11.3-11.3-4.8-4.8-9.5-9.6-14.3-14.4-4.6-4.6-9.2-9.2-13.8-13.8-1.7-1.7-3.4-3.4-5.1-5.1-8.5-8.6-16.8-17.3-24.7-26.5-4.2-4.9-8.5-9.6-12.8-14.3q-19.3-21.2-19.3-26.1h-3.9q-3.3-3.6-7.4-8.8c-1.6-1.9-3.1-3.9-4.7-5.9-.9-1.1-1.7-2.2-2.6-3.3-4.1-5.1-8.3-10.2-12.4-15.3-20.1-24.7-39.5-49.9-58.1-75.7-3.3-4.5-6.5-9-9.9-13.5-20.1-27.4-38.8-55.7-56.9-84.5-1.2-1.9-2.4-3.8-3.6-5.8-1.1-1.7-2.1-3.4-3.2-5.2-2.7-3.9-5.5-6.9-8.9-10.3-2.1-3.9-4.1-7.8-6-11.8-5.3-11-11.1-21.8-17.1-32.4-27.5-49.3-50.7-99.9-70.6-152.7-.7-1.8-1.4-3.6-2.1-5.4-15.8-41.7-26.9-83.3-35-127.2-.4-2-.8-4-1.1-6-4.6-24-8.2-47.5-8.6-72,0-2.1,0-4.3-.1-6.5-.5-30.6-.3-60.7,4-91,.2-1.4.4-2.7.6-4.1q9.5-66.4,18.9-75.8Z"/>
  <path class="st0" d="M2251.4,3012.9c2.7,8.8.3,15.8-2,24.5-12.3,51.3-19.2,104.1-25.1,156.5q-.3,2.7-.6,5.4c-.6,5.1-1.1,10.3-1.7,15.5q-.2,2.2-.5,4.5c-2.5,23.6-3.6,47.1-3.5,70.9,0,2.7,0,5.4,0,8.1,0,7,0,14.1,0,21.1,0,7.2,0,14.5,0,21.7,0,14.1,0,28.2,0,42.3,3.4-2.8,6.8-5.5,10.2-8.3,1.9-1.5,3.8-3.1,5.7-4.7,7.1-5.9,13.8-12,20.5-18.3q1.8-1.7,3.7-3.4c2.9-2.7,5.8-5.4,8.7-8.2,1.3.6,2.6,1.3,3.9,2-.6,1.1-1.3,2.2-1.9,3.3-2.3,5.2-2.4,8.8-2.4,14.4q0,2.9,0,5.9c0,2.1,0,4.2,0,6.3q0,3.3,0,6.6c0,6.7.1,13.3.2,20q0,2.8,0,5.7c.2,10.7.4,21.3.6,32,.7,31.2,1.3,62.4,1.8,93.6q0,2.2,0,4.4c.3,16.1.5,32.2.7,48.3,0,1.4,0,2.8,0,4.3q.1,11.7.2,16.8c.2,16.7.5,33.3,1.1,50q1.7,53.8-15.5,74.8c-4.2,5.4-7.8,11.1-11.5,16.9-48.1,74.5-111.3,139.8-190.8,180.4-1.3.7-2.5,1.3-3.8,2-8.8,4.4-17.2,6.9-26.8,9,1-15.5,3.5-30.1,7.1-45.2q.8-3.3,1.6-6.7c1.7-7.2,3.4-14.3,5.1-21.5,1.2-4.9,2.3-9.9,3.5-14.8,6.8-28.9,13.7-57.7,20.7-86.5,3.7-15.3,7.3-30.6,10.8-45.9,2.7-11.8,5.4-23.7,8.1-35.5q11.3-48.3,21.1-96.9c-.8.8-1.6,1.5-2.5,2.3-36.6,34.8-74.3,66.4-118.4,91.3-1.3.7-2.5,1.4-3.8,2.2-40.5,23.1-89.3,43.5-136.6,42.7,3.1-11.5,9-20.9,15.1-31,2.3-3.9,4.6-7.7,6.9-11.6,1.2-2,2.4-4,3.6-6,5.8-9.7,11.5-19.4,17.1-29.2,2.3-3.9,4.6-7.9,6.9-11.8,1.1-2,2.3-3.9,3.4-5.9,5.7-9.8,11.4-19.5,17.1-29.3,2.3-3.9,4.6-7.8,6.8-11.7,31.9-54.6,63.7-109.2,95.6-163.8q1.7-2.9,3.4-5.8c2.3-3.9,4.6-7.8,6.8-11.7,5.6-9.6,11.2-19.3,16.8-28.9,9.6-16.4,19.1-32.8,28.7-49.2,14.9-25.3,29.6-50.6,44.3-76.1,8-13.9,16-27.7,24.2-41.5,12.9-21.9,25.7-43.8,38.6-65.7,1.2-2.1,2.5-4.3,3.8-6.5,12.8-21.9,25.6-43.9,38.2-66,11.1-19.5,22.6-38.9,34.1-58.2Z"/>
  <path class="st17" d="M3456.8,1535.5c1.3.3,2.6.5,4,.8,19.8,4.2,38.9,9.7,58.1,16,2.1.7,4.3,1.4,6.5,2.1,92.7,30.1,187.6,81.8,251,157.8,1.5,1.7,3.1,3.4,4.6,5.2,27.5,30.9,75.3,89.4,75.3,133.3-8-2.9-14.7-6.8-21.9-11.2-29.8-18.1-60.1-35.6-91.9-49.9-5-2.3-9.9-4.6-14.8-7.2-7.6-3.8-15.3-6.8-23.2-9.7-2.8-1-5.5-2-8.2-3-1.3-.5-2.6-1-4-1.5-4.6-1.7-9.2-3.5-13.7-5.4q-24.9-10.1-50.7-17.9c-4.6-1.3-9.1-2.7-13.7-4.3-64.4-21.7-132.9-31.9-200.5-36.3-1.3,0-2.6-.2-3.9-.3-22.3-1.4-44.5-2.1-66.8-2.1q-2.4,0-4.8,0c-30.9,0-61.4,1.6-92.2,4.3-1.3.1-2.7.2-4.1.4-9.9.9-19.7,1.8-29.6,2.7q-2,.2-4,.4c-3.7.4-7.5.7-11.2,1.1-2.1.2-4.3.4-6.5.6q-5,.4-9,2.6c-2.6.5-5.2.9-7.9,1.3q-2.4.3-4.8.7c-1.7.2-3.4.5-5.2.7-36.3,5.3-72.1,13.2-107.4,23.2-5.7,1.5-11.4,2.9-17.1,4.3-10.5,2.6-20.9,5.1-30.9,9.3-5.7,2.1-11.6,3.7-17.5,5.3-9.7,2.7-18.9,5.8-28.2,9.8-6.5,2.6-13.1,4.7-19.7,6.8-10.7,3.5-20.8,7.5-30.9,12.3-5.5,2.5-11.1,4.7-16.9,6.8-27.6,10.5-54.2,23.3-80.5,36.7-5.5,2.8-10.9,5.5-16.4,8.2q-2.6,1.3-5.3,2.7c-1.7.9-3.4,1.7-5.2,2.6-2.1,1.1-4.1,2.1-6.3,3.3q-5.4,2.6-9.3,2.6c2.8-8.4,6.8-13.5,12.9-19.9,6.3-6.7,12.4-13.5,18-20.8,7.3-9.3,15.2-17.9,23.2-26.5q11.5-12.1,19.9-26.4h3.9c4.2-3.9,8.2-7.8,12.2-11.9,1.2-1.2,2.4-2.4,3.7-3.7,3.9-3.9,7.8-7.9,11.7-11.8q30.9-31.4,44.6-42.8c2.1-1.8,4.2-3.7,6.3-5.6,17.4-15.2,35.5-29.5,54.1-43.2,1.5-1.1,3-2.2,4.5-3.3,81.5-59.7,173.2-100.6,274.3-109.8,1.9-.2,3.7-.4,5.6-.6,63.6-5.7,127.2-1.9,189.6,11Z"/>
  <path class="st5" d="M2093.4,975.1c8.4,4.8,16,10.4,23.6,16.2,2.8,2.1,5.6,4.2,8.4,6.3,1.5,1.1,2.9,2.2,4.4,3.3,23.9,18,48,35.5,72.8,52.2,2.1,1.4,4.3,2.9,6.5,4.4,64.1,43.1,129,85.1,196.8,122.2,6.4,3.5,12.7,7.2,19,11,12.8,7.5,26.1,13.6,39.6,19.9,8.2,3.8,16.3,7.8,24.4,11.9,28.5,14.4,57.2,28.3,86.9,40.2,9.7,3.9,19.2,8.2,28.7,12.7-2.8,13.1-5.6,26.2-8.6,39.2-5.7,25.1-10.8,50.1-14.8,75.5-1.3,8.3-2.8,16.6-4.3,24.8-16.3,87.8-19.4,177-21,266-8.7-7.3-17.1-14.9-25.2-23-1-1-2.1-2.1-3.1-3.1-2.2-2.2-4.3-4.3-6.5-6.5-3.3-3.3-6.5-6.5-9.8-9.8-9.9-9.9-19.6-19.7-28.6-30.4-4.6-5.4-9.5-10.5-14.4-15.7-8.8-9.5-17.2-19.3-25.3-29.4-4.2-5.1-8.6-10.1-13.1-15-8.5-9.4-16.4-19.1-24.3-29.1-1.5-1.9-3.1-3.9-4.6-5.9-16.3-20.6-32.2-41.4-48-62.4-1-1.4-2.1-2.8-3.2-4.2-43-57.5-81.7-119-117.7-181-1-1.7-2-3.4-3-5.1-14.4-24.8-28-49.9-41.1-75.4-2.5-4.7-5-9.5-7.5-14.2-33.6-62.6-63.1-127.6-88.8-193.9.6-.6,1.3-1.3,2-2Z"/>
  <path class="st9" d="M1830.2,163.8c11.2,8,21.3,16.7,31.2,26.2,9,8.6,18.2,17.1,27.6,25.3,4.8,4.2,9.6,8.5,14.3,12.9,6.1,5.5,12.2,11.1,18.4,16.5,7.6,6.6,15,13.4,22.4,20.2,9.4,8.6,18.9,17.2,28.4,25.7,3.3,2.9,6.5,5.8,9.8,8.8,1.6,1.4,3.2,2.9,4.9,4.4q34.1,30.7,39,35.1c3.2,2.9,6.4,5.8,9.6,8.6,9,8,17.9,16.1,26.7,24.3,7.5,6.9,15.2,13.8,22.9,20.5,6.4,5.6,12.7,11.4,18.9,17.2,5.4,4.9,10.8,9.8,16.3,14.6,8.2,7.1,16,14.4,24,21.8,6.8,6.3,13.8,12.5,20.8,18.7,5.3,4.7,10.6,9.5,15.8,14.3,6.4,5.9,12.9,11.8,19.5,17.6,7.6,6.6,14.9,13.3,22.3,20.1,9.4,8.6,18.9,17.2,28.4,25.7,3.3,2.9,6.5,5.8,9.8,8.8,1.6,1.4,3.2,2.9,4.9,4.4,3.3,2.9,6.6,5.9,9.8,8.9,1.6,1.5,3.3,2.9,4.9,4.4,1.6,1.5,3.2,2.9,4.9,4.5q4.6,4.2,9.1,7.5c11.6,9.1,18.2,19.7,25.6,32.2,8.1,13.8,17,27.1,26,40.4,1.4,2,2.7,4,4.1,6.1,11.7,17.1,23.8,33.9,36.3,50.5,4.4,5.8,8.8,11.7,13.2,17.5,16.5,22.1,33.4,43.7,51.3,64.6q2.4,2.8,4.9,5.7c.9,1.1,1.8,2.1,2.8,3.2q7,8.1,7,12.4h3.9c2.6,2.9,5.1,6,7.6,9.1,7.8,9.7,15.9,18.9,24.4,28,.9,1,1.8,1.9,2.8,2.9,1,1.1,2,2.1,3,3.2,2.2,2.4,4.4,4.9,6.6,7.4,14.2,16.1,29.4,31.2,44.6,46.3,4.8,4.8,9.5,9.5,14.3,14.3,3.1,3.1,6.1,6.1,9.2,9.2q2.1,2.1,4.2,4.3c7.8,7.8,15.8,15.2,24.2,22.4,5.4,4.7,10.6,9.6,15.8,14.5,9.4,8.8,19.1,17.2,29.2,25.2,3.8,3,7.5,6.1,11.3,9.2,1.9,1.6,3.9,3.2,5.9,4.9,1.8,1.5,3.5,2.9,5.3,4.5q3.9,3.6,8.2,3.2c2.8,7.2,1.6,11.6-1.3,18.4-1.5,3.2-2.9,6.4-4.5,9.5-.8,1.6-1.5,3.3-2.3,4.9-1.9,4-3.7,8-5.6,12-.6-1.3-1.3-2.6-2-3.9-1.6-.5-3.2-1-4.8-1.6-9.3-3.1-17.4-7.7-25.9-12.5-1.9-1-3.7-2.1-5.6-3.1-64.3-35.6-126.8-74.2-186.1-117.7-1.2-.9-2.4-1.8-3.7-2.7-21.8-16.1-43.4-32.6-64.5-49.7q-2.5-2-5-4c-20.1-16.3-39.8-33.2-58.9-50.6-3.9-3.5-7.9-7-11.9-10.5-15.9-13.9-31.3-28.1-46-43.2-4-3.9-8.1-7.6-12.4-11.3-8.3-7.2-16.2-14.9-23.9-22.7-1.3-1.3-2.6-2.6-3.9-3.9-7.7-7.7-15-15.6-22.1-23.9-4.1-4.6-8.4-9-12.9-13.3-6.9-6.8-13.5-13.8-19.8-21.2-4.3-4.9-8.7-9.7-13.1-14.5-8.1-8.8-15.7-18-23.2-27.3-4.3-5.2-8.7-10.2-13.2-15.1-8.5-9.4-16.4-19.1-24.3-29.1-1.6-2-3.2-4-4.8-6.1-4.5-5.8-9.1-11.5-13.6-17.3-2.1-2.7-4.2-5.4-6.4-8.1-12.4-15.8-24.7-31.6-36.3-48.1-6.3-8.9-12.8-17.6-19.4-26.3-8-10.6-15.7-21.4-22.9-32.5-2-3-4-6-6.1-9-4.5-6.7-9-13.5-13.4-20.2-1.2-1.8-2.4-3.7-3.7-5.6-15.4-23.3-30.6-46.6-45.2-70.4-1.2-1.9-2.3-3.8-3.6-5.7-1.1-1.7-2.1-3.5-3.2-5.3-.9-1.5-1.9-3.1-2.8-4.6q-2-4-2-9.8h-3.9v-7.8c-1.9-.6-3.9-1.3-5.9-2q-3-4.5-6.3-10.4c-1.2-2.2-2.5-4.5-3.7-6.8-1.3-2.5-2.7-4.9-4-7.4-1.4-2.5-2.8-5.1-4.1-7.6-4.4-8.1-8.7-16.2-13.1-24.3-.7-1.4-1.5-2.7-2.2-4.1-4.3-8.1-8.6-16.2-12.8-24.4-1.3-2.6-2.7-5.1-4-7.7-7.8-14.9-14.7-29.7-19.9-45.7l3.9-3.9Z"/>
  <path class="st11" d="M2668.7,2246.5c4.9,2.4,9.8,4.8,14.6,7.2,1.4.7,2.7,1.3,4.1,2,6.9,3.4,13.5,7,19.9,11.1,9.7,6.2,20.1,11,30.6,15.9,3.9,1.8,7.8,3.7,11.6,5.5q2.8,1.3,5.6,2.6c4.6,2.2,9.2,4.5,13.7,6.8,5.9,3,11.9,5.5,18.2,7.8,7.8,2.9,15.5,6,23.2,9.4,25.8,11.5,52,20.6,78.8,29.3,4.9,1.6,9.8,3.3,14.7,5,82.1,29,172.7,47.2,259.5,54.2,7.1.6,12.2,1.8,18.4,5.1-1.7,0-3.4.1-5.2.2-102.4,4.2-204.6,14.9-304.8,36.8q-3.6.8-7.2,1.6c-73.9,16.2-146.6,38.2-216.1,68.5-4.5,1.9-8.9,3.8-13.4,5.7-74.1,31.1-142.9,77-202.1,131-3.4,3-6.7,6-10.1,9-13.2,11.9-25.2,24.3-36.7,37.8-1.5,1.7-3.1,3.5-4.7,5.3-25.8,29.3-46.7,62-65.5,96.2-.7,1.2-1.3,2.4-2,3.7-3.3,5.9-6.5,11.8-9.7,17.8h-2c1-11.5,2.8-22,6.3-33,.4-1.4.9-2.9,1.3-4.3,1.5-4.7,2.9-9.4,4.4-14.1,1.1-3.4,2.1-6.7,3.2-10.1,2.8-8.9,5.6-17.8,8.4-26.7,1.7-5.2,3.3-10.5,5-15.7,12.9-40.6,26.4-81,41-121,.7-1.9,1.4-3.7,2-5.7,1.9-5.3,3.8-10.6,5.8-15.8.6-1.6,1.1-3.1,1.7-4.7,4.7-12.6,9-21.4,20.3-29.1,14.4-10.1,27.9-21.2,41.1-32.8q5.7-4.8,9.6-4.8v-3.9c2.9-2.6,5.9-5,9-7.3,13-10.4,24.6-21.9,36.3-33.7,3.6-3.6,7.2-7.2,10.7-10.8,2.3-2.3,4.6-4.6,6.9-6.9,1.1-1.1,2.1-2.1,3.2-3.2,4.5-4.5,8.3-8.8,11.8-14.1h3.9c.2-1.1.3-2.3.5-3.4,1.9-5.7,4.8-8.4,9.3-12.2h3.9c.4-1,.8-2.1,1.3-3.2,4.2-7.5,10.4-13.3,16.3-19.4q5.5-5.8,9.8-12.6c2.8-5.6,7.2-9.2,11.6-13.5,4.1-4.7,8.1-9.6,12.1-14.5q1.7-2.1,3.4-4.2c8.5-10.5,16.4-21.4,24.2-32.4,4-5.6,8-11.2,12.2-16.7,1.2-1.6,2.4-3.2,3.7-4.9,2.4-3.2,4.7-6.3,7.1-9.5,7.4-9.9,13.6-20,19.3-30.9Z"/>
  <path class="st15" d="M2354.7,2002.8c8.5,7.1,16.4,14.3,24.1,22.2q3.5,3.5,8.9,7.6c1.3,1.1,2.7,2.2,4,3.3v3.9h5.9q3.2,3.1,6.6,7.2c4.1,4.9,8.1,9.6,12.8,13.9q4,4.3,4,10.1h-3.9c-.5,1.2-1.1,2.3-1.6,3.5-2.3,4.2-4.6,7.2-7.9,10.6-1.1,1.2-2.2,2.3-3.4,3.6-1.2,1.2-2.4,2.5-3.6,3.8-2.5,2.6-5,5.3-7.5,7.9q-1.9,2-3.7,4c-4.9,5.2-9.7,10.5-14.5,15.8-12.6,13.7-25.8,26.8-39,39.8-3.9,4-7.5,8-11.1,12.2-5.7,6.5-11.7,12.1-18.3,17.7-5.6,5-10.9,10.3-16.2,15.7-7.4,7.5-14.9,14.7-22.9,21.5-4.8,4.2-9.5,8.5-14.1,12.9-11,10.3-22.1,20.2-33.9,29.6-5.5,4.5-10.7,9.2-15.9,14-9.4,8.6-19,16.7-28.9,24.7-3.8,3.1-7.6,6.3-11.4,9.4q-2.2,1.8-4.4,3.6c-2.8,2.4-5.7,4.7-8.5,7.1-7.8,6.5-15.8,12.7-23.9,18.7-5.8,4.4-11.4,9-17,13.5-15.7,12.7-32,24.6-48.3,36.5-4.7,3.4-9.4,6.9-14.1,10.4-19.8,14.8-40,28.9-60.4,42.8-5.5,3.8-11.1,7.6-16.6,11.4-47.8,33-96.8,64-146.3,94.3q-2,1.3-4.1,2.5c-10,6.1-20.1,12-30.2,17.9-6.1,3.6-12.2,7.2-18.2,10.8-4,2.4-8,4.8-12,7.1-2,1.2-4.1,2.4-6.1,3.7-2,1.2-3.9,2.3-6,3.5q-2.6,1.6-5.3,3.2c-5.7,2.7-10.7,3.7-17,4.5v3.9c-19,10.7-38,21.2-57.3,31.3-1.7.9-3.5,1.9-5.3,2.8-1.6.9-3.3,1.7-5,2.6q-2.2,1.1-4.4,2.3c-4,1.8-7.6,2.9-11.9,3.8,2.8-6.5,6.4-10.7,11.5-15.7,1.5-1.5,3-3,4.6-4.5,1.6-1.5,3.2-3.1,4.8-4.7q12.6-12.2,24.4-25.2c12.3-14.3,26.2-27.3,39.6-40.5q16.1-15.7,31.3-32.3c12-14.2,25.8-26.8,38.9-39.9q17.9-17.7,34.8-36.3c7.5-8.5,15.6-16.4,23.7-24.4q2.6-2.7,5.3-5.4c8.7-8.7,17.6-17.1,26.9-25.1,8-7.1,15.4-14.8,23-22.4,1.6-1.6,3.3-3.3,4.9-5,3-3,6-6.1,9.1-9.1,1.3-1.3,2.7-2.7,4-4.1,1.3-1.4,2.6-2.7,4-4.1,3.5-3.4,6.9-6,11-8.7,1.4-.9,2.7-1.8,4.1-2.7,1.5-1,2.9-1.9,4.4-2.9,3.2-2.1,6.3-4.2,9.5-6.3,1.6-1.1,3.3-2.2,4.9-3.3,22.9-15.1,45.3-30.8,67.2-47.3q2.2-1.6,4.4-3.3c1.3-1,2.6-1.9,3.9-2.9q3.5-2.3,9.3-4.3v-3.9q8.6-5.9,13.7-5.9v-3.9q3.1-2.7,7.4-5.7c1.6-1.1,3.1-2.3,4.7-3.4q2.5-1.8,5.1-3.6c14.2-10.3,27.9-20.8,41.3-32.1,3.2-2.6,6.5-5.2,9.8-7.8,13.2-10.6,26.4-21.1,39.1-32.3q5.7-4.8,9.6-4.8v-3.9q3.4-3,8.3-6.7c8.1-6.3,15.7-12.8,23.2-19.7,1-.9,2-1.9,3-2.8,1-.9,2-1.8,3-2.7,4.4-4,8.8-8,13.3-11.9,7.6-6.6,15-13.4,22.4-20.2,7.4-6.8,14.8-13.5,22.4-20,3.7-3.4,7.3-6.9,10.8-10.4,3.2-3.2,6.5-6.5,9.7-9.7,6.8-6.8,13.7-13.5,20.5-20.3,2.9-2.9,5.9-5.8,8.8-8.8,4.3-4.2,8.5-8.5,12.8-12.7,1.3-1.3,2.6-2.6,4-4q1.8-1.8,3.7-3.7t3.3-3.2q3-3.2,4.5-8.9Z"/>
  <path class="st12" d="M1522,434.9c7.5,2.5,7.7,5,11.7,11.7,3.6,4.3,7.4,8.3,11.2,12.3,2.1,2.3,4.3,4.5,6.4,6.8,1,1.1,2,2.2,3.1,3.3,3.2,3.4,6.3,6.9,9.3,10.5,8.8,10.2,18.1,19.9,27.3,29.7,7.6,8.1,15.1,16.2,22.5,24.4,4.7,5.1,9.5,10.1,14.5,14.9q5.2,5.4,5.2,9.3c1.1.5,2.2.9,3.4,1.4,5.3,3,8.3,6.5,12.3,11.1,10.1,11.5,20.8,22.2,31.6,32.9,1.9,1.9,3.8,3.8,5.7,5.7,3.5,3.5,7,6.9,10.5,10.4,7.9,7.8,15.7,15.7,23.5,23.6,4.7,4.7,9.5,9.5,14.2,14.2,2.5,2.5,5,5,7.4,7.5q17.6,17.8,36.2,34.5c6.3,5.5,12.2,11.6,18,17.6,8.7,8.8,17.5,17.4,26.9,25.4,3.6,3.1,6.8,6.4,10.1,9.8,5.8,5.9,12.1,10.8,18.8,15.6,5,3.8,9.2,7.8,13.4,12.5v3.9q1.7.8,3.5,1.5c4.6,2.5,7.5,5.3,11.2,9.1,3.8,3.9,7.2,7.2,11.6,10.5,1,.8,2,1.5,3,2.3v3.9c1.1.5,2.2.9,3.3,1.4,5.6,3.1,9.8,7,14.5,11.4q6.2,6,13.4,10.6v3.9c1.2.5,2.3,1.1,3.5,1.6,4.1,2.1,7.1,4.3,10.5,7.4,1.2,1,2.3,2,3.5,3.1,1.2,1.1,2.4,2.2,3.7,3.3,2.6,2.3,5.3,4.6,7.9,6.9,1.3,1.2,2.7,2.3,4,3.5,15.8,13.9,31.8,27.5,48.5,40.4,11.4,8.8,22.4,18.1,33.4,27.4-6.7,2.2-9.3,1.6-16.1.2-2.1-.4-4.2-.9-6.4-1.3-2.3-.5-4.6-1-7-1.5q-3.6-.7-7.3-1.5c-5.1-1-10.3-2.1-15.4-3.2-12.1-2.5-24.2-4.9-36.2-7.4-4-.8-8-1.6-12-2.4-20.8-4.2-41.6-8.2-62.4-12.1-22.6-4.2-45.1-8.7-67.5-13.6-11-2.4-22-4.7-33.1-6.9-2.2-.4-4.5-.9-6.8-1.3-4.2-.8-8.5-1.6-12.7-2.4-24.7-4.7-36.7-20.1-52.5-38.5-1.6-1.8-3.1-3.6-4.7-5.5-14.8-17.1-28.6-34.9-42.1-53-1.1-1.4-2.1-2.8-3.2-4.3-24.3-32.7-45.9-66.9-65-102.9-.7-1.3-1.3-2.5-2-3.8-12.7-24-23-49-33.1-74.2-.8-2-1.7-4.1-2.5-6.1-6-15.1-10.5-30.1-14.2-45.9-.6-2.4-1.2-4.9-1.8-7.4-7.8-33.6-13.6-67.9-14.7-102.4Z"/>
  <path class="st25" d="M2563.4,2184.1c10.1.9,17,6.2,25.2,11.7,3,2,5.9,3.9,8.9,5.9q2.2,1.5,4.5,3c6.3,4.2,12.6,8.3,18.9,12.4,1.1.7,2.2,1.4,3.4,2.2,7.4,4.8,15,9.1,22.7,13.3,7.5,4.2,14.6,9.2,21.7,14-1.8,8.6-6.3,14.8-11.3,21.9-1,1.4-1.9,2.7-2.9,4.1-9.6,13.8-19.7,27.2-29.9,40.6-3.9,5.1-7.6,10.2-11.5,15.4-7,9.3-14.1,18.5-21.3,27.7-1,1.3-2,2.6-3.1,4-2.5,3.1-5.1,6.2-7.8,9.2h-3.9q-.6,2-1.2,4.1c-3.6,7.6-8.7,12.7-14.5,18.7q-7.6,7.5-13.5,16.2h-3.9q-1.9,3.9-3.9,7.8h-3.9c-.1,1.1-.2,2.2-.4,3.3-2.3,6.4-6.5,9.5-11.3,14.3-1.9,1.9-3.8,3.8-5.7,5.7-5.6,5.6-11.1,11.2-16.7,16.8-2.4,2.4-4.8,4.8-7.1,7.2q-30.5,30.7-38.7,36.6h-3.9v3.9q-3.7,3.4-8.9,7.6-2.9,2.3-5.9,4.7c-1.1.8-2.1,1.7-3.2,2.6-3.7,2.9-7.4,5.9-11,8.9-2.6,2.1-5.2,4.2-7.8,6.3-1.2,1-2.5,2-3.7,3-5.2,4.1-10.1,7.9-15.8,11.3q-4.4,2.1-6.1,6.4-3,1.8-7.1,3.9c-7,3.7-13.5,7.8-20,12.3-20,13.8-41.1,25.3-62.6,36.4-1.3.7-2.6,1.4-4,2.1-60.8,31.2-128.8,47.4-196.9,46.7,2.5-6.5,4.4-11,9.8-15.6.6,1.9,1.3,3.9,2,5.9,12.6-8.6,25.1-17.3,37.5-26.2q2.6-1.9,5.3-3.8,4.2-2.9,5.9-7.1c3.3-1.9,6.6-3.8,9.9-5.6,5.8-3.4,11-7.6,16.3-11.8,1.2-.9,2.3-1.8,3.5-2.8,3.8-3,7.5-6,11.2-9,1.3-1,2.6-2.1,3.9-3.1,16.7-13.4,33.2-27.1,49.5-41,3.2-2.7,6.4-5.5,9.7-8.2,14-11.8,27.6-24.1,40.9-36.7,5.9-5.6,11.9-11.2,18.2-16.5,11-9.5,21.2-19.9,31.4-30.3,3.5-3.5,7-7,10.6-10.6,10.3-10.3,20.4-20.5,29.9-31.6,5.2-6.1,10.8-11.9,16.4-17.7,9.4-10,18.4-20.2,26.9-30.9,4.4-5.4,8.9-10.6,13.5-15.8,13.7-15.5,26.3-31.6,38.7-48.1,2.9-3.9,5.8-7.7,8.7-11.5,23-30.2,45.4-61.2,64.5-93.9Z"/>
  <path class="st13" d="M2093.4,975.1c8.4,4.8,16,10.4,23.6,16.2,2.8,2.1,5.6,4.2,8.4,6.3,1.5,1.1,2.9,2.2,4.4,3.3,23.9,18,48,35.5,72.8,52.2,2.1,1.4,4.3,2.9,6.5,4.4,64.1,43.1,129,85.1,196.8,122.2,6.4,3.5,12.7,7.2,19,11,12.8,7.5,26.1,13.6,39.6,19.9,8.2,3.8,16.3,7.8,24.4,11.9,28.5,14.4,57.2,28.3,86.9,40.2,9.7,3.9,19.2,8.3,28.7,12.7-4.3,20.1-8.6,40.2-13,60.2-.6,2.9-1.3,5.8-1.9,8.6-1.5,6.9-3,13.9-4.6,20.8-89.8-19.4-180-53.8-262.9-92.7-5.8-2.7-11.7-5.3-17.6-7.8-13.3-5.7-26.2-11.8-39.1-18.4-10.5-5.3-21-10.4-31.6-15.4-2-1-3.9-1.9-6-2.9-1.9-.9-3.7-1.8-5.6-2.7-1.7-.8-3.3-1.6-5-2.4q-4.4-2.1-8.8-2.8t-5.9-4.4c-.7-1.4-1.3-2.8-2-4.2-.8-1.6-1.5-3.1-2.3-4.7-.8-1.7-1.6-3.4-2.4-5.2-1.7-3.6-3.5-7.2-5.2-10.9-.9-1.8-1.8-3.7-2.7-5.6-3.7-7.6-7.7-15-11.7-22.5-31.9-60-59.9-122.3-84.5-185.6.6-.6,1.3-1.3,2-2Z"/>
  <path class="st26" d="M2516.6,2147.1c6.5,3,11.9,6.7,17.7,11,1.9,1.4,3.7,2.7,5.7,4.2,2,1.4,3.9,2.9,5.9,4.4,4,2.9,8,5.9,12.1,8.8,3.1,2.3,6.3,4.6,9.4,6.8-1.3.6-2.6,1.3-3.9,2-.5,1.3-1,2.6-1.5,4-3.3,8-8,14.7-12.8,21.8q-1.6,2.3-3.2,4.7c-3.2,4.8-6.5,9.6-9.8,14.3-1,1.4-1.9,2.8-2.9,4.2-25.6,37.3-53.5,72.9-82.8,107.3-5.5,6.5-10.8,13-16.1,19.6-10.1,12.4-21.1,23.8-32.1,35.4-4.6,4.9-9.3,9.8-13.8,14.8-13.2,14.5-26.8,28.6-40.7,42.4-3.3,3.3-6.6,6.6-9.9,9.9-9.9,9.9-19.8,19.7-30.5,28.7-5.4,4.6-10.5,9.5-15.7,14.3-9.5,8.9-19.3,17.2-29.4,25.3-5,4.1-9.7,8.3-14.5,12.7-8.5,7.8-17.4,14.9-26.5,21.9-10.6,8.2-20.9,16.6-31.2,25.1q-22.6,18.5-30.4,18.5c-.6,1.9-1.3,3.9-2,5.9q-4,3.4-9.3,7.1c-1.9,1.4-3.8,2.7-5.8,4.1-2.1,1.5-4.2,2.9-6.4,4.4-2.4,1.6-4.7,3.3-7.1,4.9-6.1,4.2-12.2,8.4-18.3,12.6-1.3-.6-2.6-1.3-3.9-2,4.1-10.7,9.4-19.4,16.2-28.6,2.1-2.9,4.2-5.9,6.3-8.8q1.7-2.3,3.3-4.6c5.6-7.8,11-15.6,16.5-23.5,1.1-1.6,2.3-3.2,3.4-4.9,10.1-14.5,20.2-29,30.3-43.5,9.5-13.7,19-27.3,28.6-40.9,6.1-8.7,12.2-17.5,18.2-26.4,22.1-32.5,45.9-58.9,75.6-84.6,27-23.6,52.2-49.1,77.5-74.6,3.3-3.3,6.7-6.7,10-10,4.3-4.4,8.5-8.8,12.6-13.4,4.9-5.5,9.9-11,14.9-16.5,9.4-10.1,18.4-20.4,26.8-31.4,3.8-4.9,8.2-9.1,12.6-13.4,3-3.2,6-6.5,9-9.8,1.5-1.6,2.9-3.2,4.5-4.9,3.9-4.7,6.8-9.4,9.9-14.6,3.3-3.3,6.5-6.5,9.8-9.8,5.3-6.4,10.5-13,15.6-19.5,1.4-1.7,2.9-3.4,4.4-5.1q4-4.5,3.4-10.5Z"/>
  <path class="st10" d="M2206.5,1216.9c2.3,1.1,4.6,2.2,6.9,3.3,8.4,4,16.7,7.9,25.1,11.9,4.5,2.1,9,4.3,13.5,6.4,16.5,7.8,33.1,15.4,49.7,22.9,8.7,3.9,17.3,7.8,25.9,11.9,21.1,9.8,42.6,18.6,64.1,27.5,1.5.6,3,1.3,4.6,1.9,24.7,10.3,50.2,18.5,75.6,26.8,2.9,1,5.9,1.9,8.8,2.9,1.4.5,2.9.9,4.3,1.4,7.8,2.6,15.5,5.3,23.2,8.2,11.4,4.2,23,7.4,34.7,10.6,14,3.8,27.9,7.8,41.7,12.6-3,21.6-7.3,43-11.7,64.4-30.2-3.9-59.9-9.3-89.7-15.6-2.2-.5-4.4-.9-6.7-1.4-57.1-11.8-113.6-25.7-168.9-44.2q-4.1-1.3-9.9-2.4c-8.6-4.1-12-11-16.9-19-1.1-1.7-2.1-3.4-3.2-5.2-3.6-5.8-7.2-11.6-10.8-17.5-2.7-4.3-5.4-8.7-8.1-13-14.1-22.8-27.7-45.8-40.8-69.1-1.2-2.1-2.3-4.2-3.6-6.3-1.1-1.9-2.1-3.8-3.2-5.8-.9-1.7-1.9-3.3-2.8-5.1q-2-4.1-2-8Z"/>
  <path class="st16" d="M2424.9,1538.6c1.8.2,3.6.4,5.5.6,42.3,4.8,84.7,9.2,127.2,13,.4,42.9-.8,85.8-2,128.7-8.7-7.3-17.1-14.9-25.2-23-1-1-2.1-2.1-3.1-3.1-2.2-2.2-4.3-4.3-6.5-6.5-3.3-3.3-6.5-6.5-9.8-9.8-9.9-9.9-19.6-19.7-28.6-30.4-4.6-5.4-9.5-10.5-14.4-15.7-8.9-9.6-17.3-19.4-25.5-29.6-4.9-6-10-11.8-15.3-17.5q-2.4-3-2.4-6.9Z"/>
  <path class="st5" d="M2555.6,1599.1v81.9c-8.7-7.5-17.1-14.8-25.2-23q-1.5-1.5-3.1-3.1c-2.2-2.2-4.3-4.3-6.5-6.5-3.3-3.3-6.5-6.5-9.8-9.8q-23.7-23.7-31.5-33.7v-2c7.7-.6,15.4-1.1,23.1-1.7,3.9-.3,7.8-.6,11.6-.8,2.5-.2,5-.4,7.5-.5q3.4-.2,6.9-.5c9-.4,17.9-.4,26.9-.4Z"/>
  <path class="st3" d="M1134,754.7c20.5.9,40.4,5.5,60.5,9.8l-3.9,2v3.9c-13.9-2.6-27.4-5.9-41-9.8-1.9,1.9-3.9,3.9-5.9,5.9-3.2-3.9-6.4-7.7-9.8-11.7Z"/>
  <path class="st20" d="M2495.1,413.4q19.2,18.6,20.1,27.1-.3,2.1-.6,4.1-19.5-23.3-19.5-31.2Z"/>
  <path class="st1" d="M1816.5,152.1q10.3,4.6,13.7,9.8-.6,7.2-2,13.7c-4.9-5.7-6.8-10.1-7.8-17.6h-3.9v-5.9Z"/>
  <path class="st30" d="M439.7,2209.5c3.2.7,6.5,1.3,9.8,2v2h-21.5c-.6,1.3-1.3,2.6-2,3.9-.6-1.9-1.3-3.9-2-5.9q9-4.1,15.6-2Z"/>
  <path class="st22" d="M221.3,1626.4c-.6,1.3-1.3,2.6-2,3.9q-6,1.2-11.7,2c-1.3-1.9-2.6-3.9-3.9-5.9,6.6-1.6,11.1-2.2,17.6,0Z"/>
  <path class="st19" d="M1134,754.7c4.5,1.3,9,2.6,13.7,3.9-.6,2.6-1.3,5.1-2,7.8-3.9-3.2-7.8-6.5-11.7-9.8v-2Z"/>
</svg>